<svg id="Layer_1" data-name="Layer 1" xmlns="http://www.w3.org/2000/svg" viewBox="0 0 138.49 127.64"><defs><style>.cls-1{fill:#181818;}</style></defs><title>icon_agile</title><path class="cls-1" d="M342,430.8a44.62,44.62,0,0,0-20.26-35.08l2.45-3.77a49.13,49.13,0,0,1,22.3,38.63Z" transform="translate(-228.27 -357.56)"/><path class="cls-1" d="M297.52,482.06a48.47,48.47,0,0,1-22.31-5.37l2.05-4a44.48,44.48,0,0,0,40.51,0l2.05,4A48.47,48.47,0,0,1,297.52,482.06Z" transform="translate(-228.27 -357.56)"/><path class="cls-1" d="M253.07,430.8l-4.49-.22a49.13,49.13,0,0,1,22.3-38.64l2.45,3.77A44.62,44.62,0,0,0,253.07,430.8Z" transform="translate(-228.27 -357.56)"/><path class="cls-1" d="M308.72,409.49A6.78,6.78,0,0,0,302,403.7h-9a6.78,6.78,0,0,0-6.7,5.79l-4.45-.67A11.28,11.28,0,0,1,293,399.2h9a11.28,11.28,0,0,1,11.15,9.61Z" transform="translate(-228.27 -357.56)"/><path class="cls-1" d="M297.52,396.13a9.82,9.82,0,1,1,9.82-9.82A9.83,9.83,0,0,1,297.52,396.13Zm0-15.14a5.32,5.32,0,1,0,5.32,5.32A5.33,5.33,0,0,0,297.52,381Z" transform="translate(-228.27 -357.56)"/><path class="cls-1" d="M326.81,479.63l-4.45-.67a11.27,11.27,0,0,1,11.14-9.61h9A11.27,11.27,0,0,1,353.66,479l-4.45.65a6.77,6.77,0,0,0-6.69-5.78h-9A6.77,6.77,0,0,0,326.81,479.63Z" transform="translate(-228.27 -357.56)"/><path class="cls-1" d="M338,466.27a9.82,9.82,0,1,1,9.82-9.82A9.83,9.83,0,0,1,338,466.27Zm0-15.14a5.32,5.32,0,1,0,5.32,5.32A5.33,5.33,0,0,0,338,451.13Z" transform="translate(-228.27 -357.56)"/><path class="cls-1" d="M268.22,479.63a6.77,6.77,0,0,0-6.7-5.79h-9a6.77,6.77,0,0,0-6.69,5.78l-4.45-.65a11.27,11.27,0,0,1,11.15-9.63h9A11.27,11.27,0,0,1,272.67,479Z" transform="translate(-228.27 -357.56)"/><path class="cls-1" d="M257,466.27a9.82,9.82,0,1,1,9.82-9.82A9.83,9.83,0,0,1,257,466.27Zm0-15.14a5.32,5.32,0,1,0,5.32,5.32A5.33,5.33,0,0,0,257,451.13Z" transform="translate(-228.27 -357.56)"/><rect class="cls-1" x="67" y="61.65" width="4.5" height="13.85"/><rect class="cls-1" x="284.59" y="434.28" width="13.86" height="4.5" transform="translate(-407.49 -153.29) rotate(-30)"/><rect class="cls-1" x="301.27" y="429.6" width="4.5" height="13.86" transform="translate(-454.56 123.51) rotate(-59.99)"/><path class="cls-1" d="M297.52,415.06a28.75,28.75,0,1,1,28.75-28.75A28.78,28.78,0,0,1,297.52,415.06Zm0-53a24.25,24.25,0,1,0,24.25,24.25A24.28,24.28,0,0,0,297.52,362.06Z" transform="translate(-228.27 -357.56)"/><path class="cls-1" d="M338,485.2a28.75,28.75,0,1,1,28.75-28.75A28.78,28.78,0,0,1,338,485.2Zm0-53a24.25,24.25,0,1,0,24.25,24.25A24.28,24.28,0,0,0,338,432.2Z" transform="translate(-228.27 -357.56)"/><path class="cls-1" d="M257,485.2a28.75,28.75,0,1,1,28.75-28.75A28.78,28.78,0,0,1,257,485.2Zm0-53a24.25,24.25,0,1,0,24.25,24.25A24.28,24.28,0,0,0,257,432.2Z" transform="translate(-228.27 -357.56)"/></svg>