<?xml version="1.0" encoding="UTF-8" standalone="no"?>
<svg width="64px" height="84px" viewBox="0 0 64 84" version="1.1" xmlns="http://www.w3.org/2000/svg" xmlns:xlink="http://www.w3.org/1999/xlink">
    <!-- Generator: Sketch 3.8.3 (29802) - http://www.bohemiancoding.com/sketch -->
    <title>Page 1</title>
    <desc>Created with Sketch.</desc>
    <defs>
        <polygon id="path-1" points="63.687222 83.4913333 63.687222 -0.000207407407 0 -0.000207407407 0 83.4913333 63.687222 83.4913333"></polygon>
    </defs>
    <g id="Page-1" stroke="none" stroke-width="1" fill="none" fill-rule="evenodd">
        <g id="Desktop-HD" transform="translate(-923.000000, -384.000000)">
            <g id="Page-1" transform="translate(923.000000, 384.000000)">
                <mask id="mask-2" fill="white">
                    <use xlink:href="#path-1"></use>
                </mask>
                <g id="Clip-2"></g>
                <path d="M45.3050493,74.0833333 L10.2108216,74.0833333 L10.2108216,77.684963 C10.2108216,78.6753333 10.6159184,79.5754815 11.2686319,80.2288148 C11.9203093,80.8811111 12.8206395,81.2855556 13.8090342,81.2855556 L41.7068368,81.2855556 C42.6962676,81.2855556 43.5965977,80.8821481 44.2503472,80.2308889 C44.8999526,79.5775556 45.3050493,78.6763704 45.3050493,77.684963 L45.3050493,74.0833333 Z M9.91554649,8.72822222 C9.37058254,8.56540741 8.7924649,8.47622222 8.18844592,8.47622222 C6.53179696,8.47622222 5.03573624,9.14614815 3.95616888,10.2267407 L3.95202467,10.2319259 C2.87142125,11.3125185 2.20316698,12.81 2.20316698,14.4682222 C2.20316698,16.1233333 2.87245731,17.6228889 3.95409677,18.7065926 L3.95616888,18.7045185 C5.0388444,19.7882222 6.53490512,20.4581481 8.18844592,20.4581481 L14.2296717,20.4581481 L15.3299602,20.4581481 L15.3299602,21.5615556 L15.3299602,36.6628889 C15.3299602,37.6978519 15.9453757,38.3667407 16.730704,38.6602222 C17.0684573,38.7867407 17.4362562,38.85 17.803019,38.851037 C18.1708178,38.8520741 18.5375806,38.7898519 18.8711898,38.6643704 C19.636833,38.3771111 20.2325636,37.7144444 20.2325636,36.6628889 L20.2325636,21.5615556 L20.2325636,20.4581481 L21.333888,20.4581481 L26.4530266,20.4581481 L27.554351,20.4581481 L27.554351,21.5615556 L27.554351,29.8682222 C27.554351,31.6602222 28.6090531,32.8403704 29.9465977,33.3588889 C30.4843093,33.5694074 31.0686433,33.6772593 31.647797,33.6803704 C32.2228065,33.6834815 32.7978159,33.5839259 33.3230949,33.3775556 C34.5818994,32.8839259 35.5578615,31.7307407 35.5578615,29.8682222 L35.5578615,21.5615556 L35.5578615,20.4581481 L36.6581499,20.4581481 L47.1274668,20.4581481 C48.7820436,20.4581481 50.2791404,19.7892593 51.3618159,18.7065926 C52.4424194,17.6228889 53.1127457,16.1233333 53.1127457,14.4682222 C53.1127457,12.8131111 52.4424194,11.3145926 51.3597438,10.2319259 L51.3618159,10.2288148 C50.2791404,9.14718519 48.7820436,8.47622222 47.1274668,8.47622222 C46.1587571,8.47622222 45.2501385,8.70125926 44.4534137,9.10051852 C43.6173188,9.51948148 42.8931176,10.1282222 42.3367571,10.8707407 L41.4581841,12.0394815 L40.579611,10.8707407 C40.0232505,10.1282222 39.2969772,9.51948148 38.4629545,9.10051852 C37.6641575,8.70125926 36.7555389,8.47622222 35.7878653,8.47622222 C35.1848824,8.47622222 34.6046926,8.56437037 34.0597287,8.72822222 C33.4950797,8.8982963 32.9666926,9.14925926 32.4880361,9.46659259 L31.239592,10.2951852 L30.8220626,8.85162963 C30.26363,6.90718519 29.0825294,5.22822222 27.5118729,4.04496296 C25.9785142,2.8897037 24.0649241,2.20422222 21.9876376,2.20422222 C19.9113871,2.20422222 17.998833,2.8897037 16.4654744,4.04496296 C14.8927457,5.22822222 13.7137173,6.90718519 13.1542486,8.85162963 L12.7377552,10.2951852 L11.4893112,9.46659259 C11.0096186,9.14925926 10.4801954,8.8982963 9.91554649,8.72822222 L9.91554649,8.72822222 Z M6.77837761,22.5425926 L6.77837761,71.8785926 L8.00920873,71.8785926 L47.5087343,71.8785926 L48.7374934,71.8785926 L48.7374934,22.5042222 C48.2173947,22.6079259 47.6786471,22.6628889 47.1274668,22.6628889 L37.7594744,22.6628889 L37.7594744,29.8682222 C37.7594744,32.7916296 36.172241,34.623037 34.1229279,35.4277778 C33.3427799,35.7337037 32.4921803,35.880963 31.6395085,35.8768148 C30.789945,35.8716296 29.9403814,35.715037 29.152981,35.4091111 C27.0280361,34.5825926 25.350666,32.7107407 25.350666,29.8682222 L25.350666,22.6628889 L22.4352125,22.6628889 L22.4352125,36.6628889 C22.4352125,38.7846667 21.2095617,40.1328148 19.636833,40.7228889 C19.0576793,40.9406667 18.4287951,41.0485185 17.803019,41.0474815 C17.1762068,41.0464444 16.5462865,40.9365185 15.9660968,40.7187407 C14.3747192,40.1245185 13.1273112,38.764963 13.1273112,36.6628889 L13.1273112,22.6628889 L8.18844592,22.6628889 C7.70771727,22.6628889 7.23734915,22.6224444 6.77837761,22.5425926 L6.77837761,22.5425926 Z M61.4861271,47.7021481 L61.4861271,43.5374074 L61.4861271,33.6731111 L61.4902713,33.6731111 C61.4488292,32.0833333 61.0685977,30.982 60.3951632,30.3027407 C59.7351973,29.639037 58.733334,29.3268889 57.4486281,29.3113333 L57.4486281,29.3165185 L50.9411784,29.3165185 L50.9411784,61.923037 L57.4486281,61.923037 L57.4486281,61.9282222 C58.733334,61.9126667 59.7351973,61.6015556 60.3951632,60.9368148 C61.0685977,60.2575556 61.4488292,59.1562222 61.4902713,57.5664444 L61.4861271,57.5664444 L61.4861271,47.7021481 Z M44.1115161,42.966 L46.313129,42.966 L46.313129,27.732963 L44.1115161,27.732963 L44.1115161,42.966 Z M44.1115161,54.3153333 L46.313129,54.3153333 L46.313129,47.446 L44.1115161,47.446 L44.1115161,54.3153333 Z M44.1115161,65.0673333 L46.313129,65.0673333 L46.313129,58.198 L44.1115161,58.198 L44.1115161,65.0673333 Z M23.8173074,46.1756296 L23.8173074,61.6305926 C23.8173074,63.0855556 23.223649,64.4067407 22.269444,65.3639259 C21.3121309,66.3200741 19.9921992,66.9153333 18.5396528,66.9153333 C17.0871063,66.9153333 15.7661385,66.3200741 14.8098615,65.3639259 C13.8546205,64.4067407 13.259926,63.0855556 13.259926,61.6305926 L13.259926,46.1756296 L15.463611,46.1756296 L15.463611,61.6305926 C15.463611,62.4768148 15.8096528,63.2473333 16.3680854,63.8052593 C16.9244459,64.3631852 17.6942334,64.7095556 18.5396528,64.7095556 C19.383,64.7095556 20.1538235,64.3631852 20.7112201,63.8052593 C21.2696528,63.2473333 21.6156945,62.4768148 21.6156945,61.6305926 L21.6156945,46.1756296 L23.8173074,46.1756296 Z M39.6305863,46.1756296 L39.6305863,61.6305926 C39.6305863,63.0855556 39.0379639,64.4067407 38.082723,65.3639259 C37.1254099,66.3200741 35.8065142,66.9153333 34.3539677,66.9153333 C32.9003852,66.9153333 31.5814896,66.3200741 30.6241765,65.3639259 C29.6689355,64.4067407 29.074241,63.0855556 29.074241,61.6305926 L29.074241,46.1756296 L31.277926,46.1756296 L31.277926,61.6305926 C31.277926,62.4768148 31.6239677,63.2473333 32.1824004,63.8052593 C32.7387609,64.3631852 33.5075123,64.7095556 34.3539677,64.7095556 C35.197315,64.7095556 35.9671025,64.3631852 36.5244991,63.8052593 C37.0829317,63.2473333 37.4289734,62.4768148 37.4289734,61.6305926 L37.4289734,46.1756296 L39.6305863,46.1756296 Z M50.9411784,21.7202222 L50.9411784,27.1107407 L57.4486281,27.1107407 L57.4569165,27.1159259 C59.3342448,27.1356296 60.8582789,27.65 61.9533871,28.7523704 C63.0298463,29.8391852 63.6328292,31.4445185 63.6835958,33.6523704 L63.68774,33.6731111 L63.68774,43.5374074 L63.68774,47.7021481 L63.68774,57.5664444 L63.6835958,57.5882222 C63.6328292,59.7960741 63.0298463,61.4014074 61.9533871,62.4871852 C60.8582789,63.5895556 59.3342448,64.1039259 57.4569165,64.1236296 L57.4486281,64.1277778 L50.9411784,64.1277778 L50.9411784,72.982 L50.9411784,74.0833333 L49.8377818,74.0833333 L47.5087343,74.0833333 L47.5087343,77.684963 C47.5087343,79.2799259 46.8549848,80.7307407 45.8044269,81.7822963 L45.8002827,81.7864444 C44.7507609,82.838 43.3013226,83.4913333 41.7068368,83.4913333 L13.8090342,83.4913333 C12.2135123,83.4913333 10.7620019,82.838 9.71040797,81.7864444 C8.66088615,80.7348889 8.00920873,79.283037 8.00920873,77.684963 L8.00920873,74.0833333 L5.67808918,74.0833333 L4.57676471,74.0833333 L4.57676471,72.982 L4.57676471,21.8239259 C3.7655351,21.4257037 3.03097343,20.8957778 2.39794497,20.2631852 L2.39794497,20.259037 C0.916388994,18.7760741 -0.000518026565,16.7279259 -0.000518026565,14.4682222 C-0.000518026565,12.2095556 0.916388994,10.1614074 2.39794497,8.67740741 L2.40001708,8.67533333 L2.40312524,8.67325926 C3.88571727,7.18925926 5.93295825,6.27148148 8.18844592,6.27148148 C9.00485579,6.27148148 9.79536433,6.39385185 10.5423586,6.61785185 C10.8687154,6.71637037 11.1836755,6.83355556 11.4893112,6.96837037 C12.2787837,5.10377778 13.5510569,3.49118519 15.1486509,2.28822222 C17.0560247,0.851925926 19.4254782,-0.000518518519 21.9876376,-0.000518518519 C24.5518691,-0.000518518519 26.9192505,0.851925926 28.8276603,2.28822222 C30.4262903,3.49014815 31.6964915,5.10274074 32.4859639,6.96837037 C32.7936717,6.83251852 33.1086319,6.71533333 33.4329165,6.61785185 C34.1819829,6.39385185 34.9724915,6.27148148 35.7878653,6.27148148 C37.0943283,6.27148148 38.337592,6.58362963 39.4430607,7.13740741 C40.1859108,7.5097037 40.8655617,7.99088889 41.4581841,8.56125926 C42.0508065,7.99088889 42.7294213,7.5097037 43.4712353,7.13740741 C44.5787761,6.58362963 45.8210038,6.27148148 47.1274668,6.27148148 C49.3850266,6.27148148 51.4312315,7.1902963 52.9117514,8.67325926 L52.9158956,8.67325926 C54.3974516,10.1551852 55.3164307,12.2054074 55.3164307,14.4682222 C55.3164307,16.7268889 54.3974516,18.7760741 52.9158956,20.259037 L52.9117514,20.2631852 C52.3336338,20.8418519 51.6695237,21.3344444 50.9411784,21.7202222 L50.9411784,21.7202222 Z" id="Fill-1" fill="#463D6B" mask="url(#mask-2)"></path>
            </g>
        </g>
    </g>
</svg>