<?xml version="1.0" encoding="UTF-8" standalone="no"?>
<svg width="74px" height="84px" viewBox="0 0 74 84" version="1.1" xmlns="http://www.w3.org/2000/svg" xmlns:xlink="http://www.w3.org/1999/xlink">
    <!-- Generator: Sketch 3.8.3 (29802) - http://www.bohemiancoding.com/sketch -->
    <title>Page 1</title>
    <desc>Created with Sketch.</desc>
    <defs></defs>
    <g id="Page-1" stroke="none" stroke-width="1" fill="none" fill-rule="evenodd">
        <g id="Desktop-HD" transform="translate(-1060.000000, -384.000000)" fill="#463D6B">
            <g id="Page-1" transform="translate(1060.000000, 384.000000)">
                <path d="M53.5470295,12.3964428 L49.4427972,12.3964428 L6.13347965,12.3964428 L2.34742202,12.3964428 L2.34742202,15.9692889 L3.789151,15.9692889 L51.6092574,15.9692889 L53.5470295,15.9692889 L53.5470295,12.3964428 Z M27.2909905,72.2754923 L11.1988646,72.2754923 L11.5568111,76.2526661 L24.1932066,76.2526661 L27.9770546,76.2526661 C27.5196786,74.7917984 27.3495435,73.3606769 27.2909905,72.2754923 L27.2909905,72.2754923 Z M51.0358801,66.9784698 C48.7512092,66.2854941 45.5153286,66.0816778 41.8905679,66.0816778 C38.2591785,66.0816778 34.9669545,66.240324 32.6579785,66.9090621 C30.7411971,67.464324 29.5612994,68.3787435 29.5955473,69.8980018 C29.6320048,71.4459046 30.8218455,72.3724428 32.7375222,72.934315 C35.0221931,73.6041548 38.2635976,73.7616994 41.8905679,73.7616994 C45.5120143,73.7616994 48.7954001,73.5567813 51.1154238,72.8605005 C53.0377291,72.2832043 54.2209412,71.3764968 54.187798,69.9486805 C54.1513404,68.4856094 52.9581854,67.5601728 51.0358801,66.9784698 L51.0358801,66.9784698 Z M29.8761597,74.2651809 C30.1744485,75.8064734 30.7887023,77.5174293 32.0382008,78.7601584 C33.5837785,80.2959424 36.9212982,81.3227363 40.5206492,81.5827399 C43.9476555,81.8284212 47.5403778,81.3646013 49.9951838,79.9676328 C51.5341328,79.0928749 52.8764322,77.7179406 53.6619259,75.9045257 C53.9116047,75.3272295 54.1038352,74.7036616 54.2286746,74.0371269 C53.5437152,74.4712007 52.7206592,74.8215446 51.7849163,75.1013789 C49.2063758,75.8758812 45.7053496,76.1039352 41.8905679,76.1039352 C38.0824148,76.1039352 34.6410464,75.9254581 32.0768679,75.1751935 C31.2504975,74.933919 30.5102995,74.6331521 29.8761597,74.2651809 L29.8761597,74.2651809 Z M36.7124961,70.5513159 L51.2966066,70.5513159 L51.2966066,68.2090801 L36.7124961,68.2090801 L36.7124961,70.5513159 Z M8.4822274,10.054207 L47.0951542,10.054207 L47.0951542,9.25216202 C47.0951542,8.54927093 46.6985407,7.88714311 46.0577722,7.38917012 L46.0555627,7.39247525 C45.3319363,6.83060306 44.3177545,6.48136094 43.1897811,6.48136094 L12.385391,6.48136094 C11.2541033,6.48136094 10.2410263,6.82839964 9.5196094,7.38806841 L9.5196094,7.39247525 C8.87884096,7.88934653 8.4822274,8.55037264 8.4822274,9.25216202 L8.4822274,10.054207 Z M12.4074864,2.34333753 L19.5796738,2.34333753 L19.5796738,0 L12.4074864,0 L12.4074864,2.34333753 Z M13.4514971,22.7062466 L15.0478943,43.0636472 L12.7090895,43.2377174 L11.1126923,22.8803168 L13.4514971,22.7062466 Z M15.5185277,49.0514419 L16.0046279,55.2639856 L13.6647183,55.4380558 L13.1786181,49.2244104 L15.5185277,49.0514419 Z M16.403451,60.3439712 L16.8906559,66.5565149 L14.5496416,66.7305851 L14.0624366,60.5169397 L16.403451,60.3439712 Z M18.8615713,22.8131125 L48.645151,22.8131125 L49.0506027,18.3115248 L6.34780565,18.3115248 L10.9878529,69.9332565 L27.2567425,69.9332565 C27.19598,67.1205905 29.0287987,65.5319244 32.0061624,64.6670819 C34.5957507,63.9168173 38.0868339,63.7394419 41.8905679,63.7394419 C42.9456262,63.7394419 43.9730653,63.7570693 44.9618373,63.7978326 L48.4352441,25.1553483 L18.8615713,25.1553483 L18.8615713,22.8131125 Z M57.9186169,47.743712 C56.788434,49.6155176 56.4547925,52.2992835 56.4547925,55.3146643 C56.4547925,58.3476724 56.7122046,61.0887273 57.8026158,62.9748551 C58.8101689,64.7188623 60.6418828,65.7930297 63.87003,65.757775 C67.1125392,65.7192151 68.9553008,64.6395392 69.9672731,62.9054473 C71.0576842,61.0380486 71.3139915,58.3421638 71.3139915,55.3146643 C71.3139915,52.2926733 70.9792453,49.5637372 69.8490623,47.6732025 C68.8006326,45.9170765 66.9678139,44.8351971 63.8976493,44.873757 C60.8142274,44.9101134 58.9725705,45.9963996 57.9186169,47.743712 L57.9186169,47.743712 Z M54.1060447,55.3146643 C54.1060447,51.9202952 54.5170204,48.842117 55.9101393,46.5340342 C57.3783829,44.1014581 59.8387127,42.5888101 63.87003,42.5392331 C67.9157093,42.4896562 70.3859821,44.0078128 71.8597495,46.4745419 C73.2517637,48.8046589 73.6627393,51.9258038 73.6627393,55.3146643 C73.6627393,58.6980162 73.3445646,61.7640756 71.9945318,64.0754635 C70.5671649,66.5201584 68.1079398,68.0405185 63.8976493,68.0900954 L63.8932302,68.0900954 C59.6729967,68.1385707 57.2049335,66.6127021 55.7742522,64.1360576 C54.4253242,61.800432 54.1060447,58.6925077 54.1060447,55.3146643 L54.1060447,55.3146643 Z M64.9228788,47.6489649 C64.9173549,47.6555752 62.905563,49.9350135 63.2811859,52.0051269 C63.4667878,53.0220054 64.1782617,53.8152367 64.8322874,54.5434671 C65.7083725,55.5173789 66.5104378,56.4097642 66.5667813,57.8122412 C66.6617918,60.2271899 64.454455,63.3053681 64.4478263,63.3152835 L62.5211019,61.9888245 C62.525521,61.9811125 64.2909485,59.5077732 64.2279765,57.9036832 C64.2036715,57.3385059 63.6711708,56.7446841 63.0911649,56.0990819 C62.223918,55.1350855 61.2826512,54.0873591 60.9788386,52.4171665 C60.3977279,49.2310207 63.1530322,46.1109775 63.1618704,46.1021638 L64.9228788,47.6489649 Z M1.17415292,10.054207 L6.13237488,10.054207 L6.13237488,9.25216202 C6.13237488,7.78688749 6.87920154,6.4769541 8.07898519,5.54380558 L8.08119474,5.54711071 C9.20032995,4.6789631 10.7260217,4.13912511 12.385391,4.13912511 L43.1897811,4.13912511 C44.8546743,4.13912511 46.380366,4.67786139 47.4961869,5.54380558 L47.4961869,5.54931413 C48.6970753,6.48136094 49.4427972,7.79129433 49.4427972,9.25216202 L49.4427972,10.054207 L54.7202986,10.054207 L55.8946725,10.054207 L55.8946725,11.2253249 L55.8946725,17.1415086 L55.8946725,18.3115248 L54.7202986,18.3115248 L51.3982457,18.3115248 L47.296223,63.9531737 C48.9445445,64.1085149 50.4393026,64.3597048 51.7153156,64.746405 C54.6054022,65.6233663 56.4172302,67.1778794 56.5221837,69.8010513 C56.9972361,72.5068515 56.6646994,74.8667147 55.8173384,76.8277588 C54.8197282,79.1358416 53.1106441,80.8853573 51.1518813,81.9991863 C48.2717377,83.6374293 44.1896008,84.1904878 40.3571427,83.9150603 C36.2418627,83.6187003 32.3298609,82.3484284 30.3876697,80.4160288 C29.830864,79.8618686 29.3712784,79.2438092 28.993446,78.5938002 L24.1932066,78.5938002 L10.4862859,78.5938002 L9.41907504,78.5938002 L9.321855,77.5240396 L4.00016267,18.3115248 L1.17415292,18.3115248 L-0.000220954633,18.3115248 L-0.000220954633,17.1415086 L-0.000220954633,11.2253249 L-0.000220954633,10.054207 L1.17415292,10.054207 Z" id="Fill-1"></path>
            </g>
        </g>
    </g>
</svg>