<?xml version="1.0" encoding="UTF-8"?>
<svg width="340px" height="173px" viewBox="0 0 340 173" version="1.1" xmlns="http://www.w3.org/2000/svg" xmlns:xlink="http://www.w3.org/1999/xlink">
    <!-- Generator: Sketch 47.1 (45422) - http://www.bohemiancoding.com/sketch -->
    <title>Envelope</title>
    <desc>Created with Sketch.</desc>
    <defs></defs>
    <g id="Page-1" stroke="none" stroke-width="1" fill="none" fill-rule="evenodd" stroke-linecap="square" stroke-linejoin="bevel">
        <path d="M169.911334,106.63645 L335,40.4508569 C335,40.4508569 292.109277,118.337328 270.753411,157.362087 C268.746425,161.029564 263.893918,168 263.893918,168 L230.420428,146.320039 L263.413672,167.758379 L170.441501,167.758379 L76.407336,167.758379 L169.474915,107.758988 L169.472294,107.413059 L75.9270906,168 C75.9270906,168 71.0745828,161.029564 69.0675967,157.362087 C47.7117311,118.337328 5,40.2878099 5,40.2878099 L169.911334,106.63645 Z M169.467973,106.842624 L169.472294,107.413059 L169.910504,107.129241 L169.467973,106.842624 Z M169.467758,106.814284 L169.562982,106.776108 L169.466997,106.713738 L169.467758,106.814284 Z M6.13395477,38.9898069 L129.550956,63.0500954 L115.314786,83.030115 L6.13395477,38.9898069 Z M169.440864,3 L224.850607,84.3536416 L169.984359,106.588755 L115.964069,84.3536416 L169.440864,3 Z M169.911334,106.63645 L169.562982,106.776108 L170.008635,107.065684 L169.910504,107.129241 L230.420428,146.320039 L170.008635,107.065684 L170.380145,106.825066 L169.911334,106.63645 Z M169.467973,106.842624 L169.467758,106.814284 L169.440864,106.825066 L169.467973,106.842624 Z M334.072926,39.3394657 L224.321869,83.0230503 L210.349433,62.9981099 L334.072926,39.3394657 Z" id="Envelope" stroke="#6C5EA4" stroke-width="9.6"></path>
    </g>
</svg>