<svg id="Layer_1" data-name="Layer 1" xmlns="http://www.w3.org/2000/svg" viewBox="0 0 139.07 70.74"><defs><style>.cls-1{fill:#6c5ea4;}</style></defs><title>logo</title><g id="Page-1"><g id="Envelope"><path class="cls-1" d="M109.28,72.08H31.65l-0.06-.19-1.11-.22c-0.08-.12-2.06-3-2.91-4.56L1,18.16,2.44,16.5l0.07,0,0.19-.63,50.61,9.94,16-24.48,2,0L87.78,25.79,138.39,16l0.16,0.53h0L140,18.23c-0.18.33-17.91,32.76-26.67,48.89-0.85,1.57-2.83,4.44-2.91,4.56l-1.11.22ZM35.62,69.72h69.71L70.57,47Zm60.61-8.77,12.93,8.43c0.65-1,1.63-2.46,2.14-3.39,7.22-13.29,20.53-37.66,25.09-46L72.85,45.65ZM4.6,19.92L29.63,66c0.5,0.93,1.49,2.42,2.14,3.39L68.13,45.66ZM49.83,35.48L70.5,44l21-8.57L70.29,4.13ZM14.25,20.56L47.38,34l4.32-6.11Zm75,7.34L93.49,34l33.28-13.34Z" transform="translate(-0.96 -1.34)"/></g></g></svg>