<svg id="Layer_1" data-name="Layer 1" xmlns="http://www.w3.org/2000/svg" viewBox="0 0 124.5 119.5"><defs><style>.cls-1{fill:#191818;}</style></defs><title>icon_portfolio</title><path class="cls-1" d="M332.52,404.14v-4.5a22.74,22.74,0,0,0,22.75-22.75V354.14H239.77v22.75a22.74,22.74,0,0,0,22.75,22.75v4.5a27.24,27.24,0,0,1-27.25-27.25V349.64h124.5v27.25A27.24,27.24,0,0,1,332.52,404.14Z" transform="translate(-235.27 -334.64)"/><rect class="cls-1" x="37.25" y="65" width="50" height="4.5"/><path class="cls-1" d="M347.52,454.14h-100a12.25,12.25,0,0,1-12.25-12.25v-40h4.5v40a7.75,7.75,0,0,0,7.75,7.75h100a7.75,7.75,0,0,0,7.75-7.75v-40h4.5v40A12.25,12.25,0,0,1,347.52,454.14Z" transform="translate(-235.27 -334.64)"/><path class="cls-1" d="M325.77,351.89h-4.5v-8a4.75,4.75,0,0,0-4.75-4.75h-38a4.75,4.75,0,0,0-4.75,4.75v8h-4.5v-8a9.25,9.25,0,0,1,9.25-9.25h38a9.25,9.25,0,0,1,9.25,9.25v8Z" transform="translate(-235.27 -334.64)"/><path class="cls-1" d="M274.77,414.14h-14.5v-24.5h14.5v24.5Zm-10-4.5h5.5v-15.5h-5.5v15.5Z" transform="translate(-235.27 -334.64)"/><path class="cls-1" d="M334.77,414.14h-14.5v-24.5h14.5v24.5Zm-10-4.5h5.5v-15.5h-5.5v15.5Z" transform="translate(-235.27 -334.64)"/></svg>