<?xml version="1.0" encoding="UTF-8" standalone="no"?>
<svg width="78px" height="71px" viewBox="0 0 78 71" version="1.1" xmlns="http://www.w3.org/2000/svg" xmlns:xlink="http://www.w3.org/1999/xlink">
    <!-- Generator: Sketch 3.8.3 (29802) - http://www.bohemiancoding.com/sketch -->
    <title>Page 1</title>
    <desc>Created with Sketch.</desc>
    <defs></defs>
    <g id="Page-1" stroke="none" stroke-width="1" fill="none" fill-rule="evenodd">
        <g id="Desktop-HD" transform="translate(-923.000000, -239.000000)" fill="#463D6B">
            <path d="M925.227176,307.739233 L931.645389,307.739233 L931.645389,280.077516 L925.227176,280.077516 L925.227176,307.739233 Z M959.013037,284.766988 C959.224647,286.144493 959.821178,287.376383 960.672408,288.321292 C961.751525,289.517044 963.243331,290.257878 964.891212,290.257878 C966.541007,290.257878 968.032813,289.517044 969.111931,288.321292 L969.110016,288.319166 C969.961245,287.374257 970.557776,286.14343 970.769387,284.766988 L959.013037,284.766988 Z M962.042609,285.557778 C962.448595,286.27948 962.880434,286.799234 963.419514,287.125541 C963.978701,287.465666 964.696837,287.634665 965.66201,287.646357 L965.644775,289.896495 C964.330109,289.881615 963.30557,289.623333 962.448595,289.103579 C961.569598,288.568946 960.904126,287.793036 960.31717,286.749278 L962.042609,285.557778 Z M992.064485,282.507283 L992.064485,283.637135 L992.064485,307.739233 L998.482697,307.739233 L998.482697,280.077516 L992.064485,280.077516 L992.064485,282.507283 Z M946.784633,284.766988 L946.784633,291.00509 C946.784633,292.719532 947.418507,294.278792 948.435386,295.409707 C949.455138,296.539559 950.85981,297.243192 952.404279,297.243192 L971.230908,297.243192 C972.777292,297.243192 974.181964,296.541685 975.201716,295.411833 C976.218595,294.280917 976.850554,292.719532 976.850554,291.00509 L976.850554,284.766988 L972.82804,284.766988 C972.598237,286.767347 971.769988,288.560443 970.548201,289.91669 L970.544371,289.91669 C969.097568,291.52378 967.09828,292.518645 964.891212,292.518645 C962.684143,292.518645 960.684855,291.52378 959.238053,289.91669 L959.234223,289.913502 C958.012435,288.556191 957.184186,286.764158 956.954383,284.766988 L946.784633,284.766988 Z M978.88527,284.766988 L978.88527,291.00509 C978.88527,293.34026 978.025423,295.462851 976.637986,297.001916 L976.634156,297.006168 C975.247677,298.547358 973.334565,299.501834 971.230908,299.501834 L952.404279,299.501834 C950.298707,299.501834 948.383681,298.547358 946.997201,297.006168 C945.609764,295.468166 944.749917,293.342385 944.749917,291.00509 L944.749917,284.766988 L933.744258,284.766988 L933.744258,307.739233 L990.029769,307.739233 L990.029769,284.766988 L978.88527,284.766988 Z M924.016879,239 L999.982163,239 L1001,239 L1001,240.129852 L1001,257.26683 L1001,258.39562 L999.982163,258.39562 L924.016879,258.39562 L923,258.39562 L923,257.26683 L923,240.129852 L923,239 L924.016879,239 Z M996.467132,245.788679 L996.467132,256.136978 L998.963369,256.136978 L998.963369,241.258642 L925.034716,241.258642 L925.034716,256.136978 L928.085354,256.136978 L928.085354,250.548302 L930.121027,250.548302 L930.121027,256.136978 L934.028639,256.136978 L934.028639,250.548302 L936.063355,250.548302 L936.063355,256.136978 L940.399934,256.136978 L940.399934,245.788679 L942.43465,245.788679 L942.43465,256.136978 L945.731368,256.136978 L945.731368,250.548302 L947.767999,250.548302 L947.767999,256.136978 L951.674654,256.136978 L951.674654,250.548302 L953.70937,250.548302 L953.70937,256.136978 L958.044991,256.136978 L958.044991,245.788679 L960.081622,245.788679 L960.081622,256.136978 L963.988277,256.136978 L963.988277,250.548302 L966.022993,250.548302 L966.022993,256.136978 L969.929647,256.136978 L969.929647,250.548302 L971.966278,250.548302 L971.966278,256.136978 L976.300942,256.136978 L976.300942,245.788679 L978.337573,245.788679 L978.337573,256.136978 L982.116878,256.136978 L982.116878,250.548302 L984.151594,250.548302 L984.151594,256.136978 L988.058249,256.136978 L988.058249,250.548302 L990.09488,250.548302 L990.09488,256.136978 L994.4305,256.136978 L994.4305,245.788679 L996.467132,245.788679 Z M933.68202,282.507283 L944.749917,282.507283 L956.891187,282.507283 L957.908066,282.507283 L971.874357,282.507283 L972.891236,282.507283 L978.88527,282.507283 L990.029769,282.507283 L990.029769,278.947664 L990.029769,277.818875 L991.046648,277.818875 L999.500534,277.818875 L1000.51933,277.818875 L1000.51933,278.947664 L1000.51933,308.870148 L1000.51933,310 L999.500534,310 L992.064485,310 L991.046648,310 L990.029769,310 L933.68202,310 L932.726421,310 L932.66514,310 L931.707627,310 L924.210297,310 L923.19246,310 L923.19246,308.870148 L923.19246,278.947664 L923.19246,277.818875 L924.210297,277.818875 L932.66514,277.818875 L933.68202,277.818875 L933.68202,278.947664 L933.68202,282.507283 Z" id="Page-1"></path>
        </g>
    </g>
</svg>