<svg id="Layer_1" data-name="Layer 1" xmlns="http://www.w3.org/2000/svg" viewBox="0 0 37.57 36.69"><defs><style>.cls-1{fill:#1d1d1b;}</style></defs><title>tech_frontend</title><path class="cls-1" d="M316.6,439.33H279V413.75H316.6v25.58Zm-35.57-2H314.6V415.75H281v21.58Z" transform="translate(-279.03 -402.64)"/><path class="cls-1" d="M316.6,411.47H279v-4.3a4.53,4.53,0,0,1,4.53-4.53h28.52a4.53,4.53,0,0,1,4.53,4.53v4.3Zm-35.57-2H314.6v-2.3a2.53,2.53,0,0,0-2.53-2.53H283.55a2.53,2.53,0,0,0-2.53,2.53v2.3Z" transform="translate(-279.03 -402.64)"/><polygon class="cls-1" points="18.59 27.46 16.09 27.46 16.09 25.46 16.59 25.46 16.59 24.96 18.59 24.96 18.59 27.46"/><rect class="cls-1" x="10.48" y="25.47" width="3.36" height="2"/><polygon class="cls-1" points="8.24 27.46 5.74 27.46 5.74 24.96 7.74 24.96 7.74 25.46 8.24 25.46 8.24 27.46"/><rect class="cls-1" x="5.74" y="20.54" width="2" height="2.66"/><polygon class="cls-1" points="7.74 18.77 5.74 18.77 5.74 16.27 8.24 16.27 8.24 18.27 7.74 18.27 7.74 18.77"/><rect class="cls-1" x="10.48" y="16.27" width="3.36" height="2"/><polygon class="cls-1" points="18.59 18.77 16.59 18.77 16.59 18.27 16.09 18.27 16.09 16.27 18.59 16.27 18.59 18.77"/><rect class="cls-1" x="16.59" y="20.54" width="2" height="2.66"/><rect class="cls-1" x="22.29" y="16.27" width="10.21" height="2"/><rect class="cls-1" x="22.29" y="20.87" width="10.21" height="2"/><rect class="cls-1" x="22.29" y="25.47" width="10.21" height="2"/><rect class="cls-1" x="5.69" y="30.06" width="26.81" height="2"/><rect class="cls-1" x="26.56" y="3.41" width="2.53" height="2"/><rect class="cls-1" x="30.4" y="3.41" width="2.52" height="2"/></svg>