<svg id="Layer_1" data-name="Layer 1" xmlns="http://www.w3.org/2000/svg" viewBox="0 0 44.54 38.58"><defs><style>.cls-1{fill:#1d1d1b;}</style></defs><title>tech_cd</title><path class="cls-1" d="M289,425.31h-9.29l5.73-9.92c8-13.77,8-13.77,8-13.86l0.29-.29h9l2.76,4.79-1.73,1-2.19-3.8h-6.84l-7.6,13.16-4,6.92H289v2Z" transform="translate(-275.92 -401.23)"/><path class="cls-1" d="M308.29,439.81H280.48l-0.29-.5-4-6.93-0.28-.49,2.76-4.8,1.73,1-2.19,3.8,3.42,5.92h23.19l-2.91-5,1.73-1Z" transform="translate(-275.92 -401.23)"/><path class="cls-1" d="M315.88,439.81h-5.53v-2h4.38l3.42-5.92-11.59-20.08-2.91,5-1.73-1,4.64-8,0.87,1.49,12.75,22.08,0.29,0.5-0.29.5-4,6.92Z" transform="translate(-275.92 -401.23)"/><path class="cls-1" d="M298.19,431.79a7.48,7.48,0,1,1,7.48-7.48A7.48,7.48,0,0,1,298.19,431.79Zm0-13a5.48,5.48,0,1,0,5.48,5.48A5.48,5.48,0,0,0,298.19,418.83Z" transform="translate(-275.92 -401.23)"/></svg>