<svg id="_ÎÓÈ_1" data-name="—ÎÓÈ_1" xmlns="http://www.w3.org/2000/svg" viewBox="0 0 47.61 39.1"><defs><style>.cls-1{fill:#1d1d1b;}</style></defs><title>icon_tech_backend</title><polygon class="cls-1" points="38.84 39.1 0 39.1 0 9.99 37.26 9.99 37.26 35.51 35.26 35.51 35.26 11.99 2 11.99 2 37.1 38.84 37.1 38.84 39.1"/><path class="cls-1" d="M238.45,280.2H201.2v-3.54a4.46,4.46,0,0,1,4.45-4.45H234a4.45,4.45,0,0,1,4.45,4.45v3.54Zm-35.25-2h33.25v-1.54a2.45,2.45,0,0,0-2.45-2.45H205.65a2.45,2.45,0,0,0-2.45,2.45v1.54Z" transform="translate(-201.2 -272.21)"/><rect class="cls-1" x="26.01" y="3" width="2.66" height="2"/><rect class="cls-1" x="30.21" y="3" width="2.66" height="2"/><path class="cls-1" d="M240,311.31a3.59,3.59,0,0,1-3.59-3.59h2a1.59,1.59,0,0,0,3.18,0h2A3.59,3.59,0,0,1,240,311.31Z" transform="translate(-201.2 -272.21)"/><path class="cls-1" d="M248.8,289.08h-2a1.59,1.59,0,1,0-3.18,0h-2A3.59,3.59,0,1,1,248.8,289.08Z" transform="translate(-201.2 -272.21)"/><rect class="cls-1" x="36.25" y="13.28" width="7.77" height="2"/><rect class="cls-1" x="40.43" y="16.87" width="2" height="18.64"/><path class="cls-1" d="M213.23,292.6h-2c0-3.46,2-6.18,4.48-6.18v2C214.36,288.42,213.23,290.34,213.23,292.6Z" transform="translate(-201.2 -272.21)"/><path class="cls-1" d="M213.23,300.33h-2c0-1.15-1-2.87-3.66-2.87v-2c2.68,0,3.66-1.71,3.66-2.87h2a4.72,4.72,0,0,1-2.13,3.87A4.72,4.72,0,0,1,213.23,300.33Z" transform="translate(-201.2 -272.21)"/><path class="cls-1" d="M215.71,306.51c-2.51,0-4.48-2.71-4.48-6.18h2c0,2.26,1.13,4.18,2.48,4.18v2Z" transform="translate(-201.2 -272.21)"/><path class="cls-1" d="M223.94,306.51v-2c1.34,0,2.48-1.91,2.48-4.18h2C228.41,303.8,226.45,306.51,223.94,306.51Z" transform="translate(-201.2 -272.21)"/><path class="cls-1" d="M228.41,300.33h-2a4.72,4.72,0,0,1,2.13-3.87,4.72,4.72,0,0,1-2.13-3.87h2c0,1.15,1,2.87,3.66,2.87v2C229.39,297.47,228.41,299.18,228.41,300.33Z" transform="translate(-201.2 -272.21)"/><path class="cls-1" d="M228.41,292.6h-2c0-2.26-1.13-4.18-2.48-4.18v-2C226.45,286.42,228.41,289.14,228.41,292.6Z" transform="translate(-201.2 -272.21)"/><rect class="cls-1" x="215.17" y="295.47" width="9.31" height="2" transform="translate(-350.05 41.41) rotate(-56.11)"/></svg>