<svg id="Layer_1" data-name="Layer 1" xmlns="http://www.w3.org/2000/svg" viewBox="0 0 143.97 108.86"><defs><style>.cls-1{fill:#181818;}</style></defs><title>icon_transparent</title><rect class="cls-1" x="326.03" y="429.83" width="17.46" height="4.5" transform="translate(-433.1 -2.66) rotate(-45.04)"/><rect class="cls-1" x="258.12" y="423.35" width="4.5" height="17.46" transform="translate(-454.83 -55.65) rotate(-44.99)"/><rect class="cls-1" x="289.15" y="392.32" width="4.5" height="17.46" transform="translate(-423.8 -42.87) rotate(-44.99)"/><path class="cls-1" d="M270.41,449.87h0a7.73,7.73,0,0,1-5.53-13.14l0.07-.07a7.74,7.74,0,0,1,10.94,10.94h0A7.7,7.7,0,0,1,270.41,449.87Zm-2.26-10,0,0a3.18,3.18,0,0,0-.94,2.27,3.26,3.26,0,0,0,1,2.31,3.22,3.22,0,0,0,2.28.93h0a3.23,3.23,0,0,0,2.29-.94,3.26,3.26,0,0,0,1-2.3,3.18,3.18,0,0,0-.94-2.28A3.3,3.3,0,0,0,268.15,439.82Z" transform="translate(-225.58 -366.26)"/><path class="cls-1" d="M278.16,457.62a7.73,7.73,0,0,1,0-15.47h0a7.72,7.72,0,0,1,5.68,13v0l-0.19.19A7.64,7.64,0,0,1,278.16,457.62Zm0-11a3.17,3.17,0,0,0-2.27.94,3.21,3.21,0,0,0,0,4.58,3.3,3.3,0,0,0,4.48.1l0.1-.1a3.2,3.2,0,0,0,0-4.57,3.17,3.17,0,0,0-2.29-.95h0Z" transform="translate(-225.58 -366.26)"/><path class="cls-1" d="M285.92,465.39a7.74,7.74,0,0,1-5.68-13l0,0,0.2-.21a7.69,7.69,0,0,1,5.47-2.25h0a7.7,7.7,0,0,1,5.46,2.25,7.78,7.78,0,0,1,2.26,5.49h0A7.75,7.75,0,0,1,285.92,465.39Zm-2.22-10.1-0.06.06a3.27,3.27,0,0,0-1,2.31,3.19,3.19,0,0,0,.94,2.28,3.31,3.31,0,0,0,4.59,0,3.19,3.19,0,0,0,.94-2.28,3.29,3.29,0,0,0-1-2.31,3.21,3.21,0,0,0-2.27-.92h0A3.22,3.22,0,0,0,283.7,455.29Z" transform="translate(-225.58 -366.26)"/><path class="cls-1" d="M293.67,473.15a7.75,7.75,0,1,1,5.46-2.26A7.69,7.69,0,0,1,293.67,473.15Zm0-11a3.24,3.24,0,0,0,0,6.49,3.29,3.29,0,0,0,2.3-1,3.24,3.24,0,0,0,0-4.55h0A3.23,3.23,0,0,0,293.68,462.16Z" transform="translate(-225.58 -366.26)"/><polygon class="cls-1" points="22.92 68.53 0 45.61 3.18 42.43 22.92 62.17 62.16 22.92 42.42 3.18 45.6 0 68.52 22.92 22.92 68.53"/><polygon class="cls-1" points="121.05 68.54 75.45 22.92 98.37 0 101.55 3.18 81.81 22.92 121.05 62.17 140.79 42.43 143.97 45.62 121.05 68.54"/><path class="cls-1" d="M303.42,475.12a7.76,7.76,0,0,1-5.47-2.26l-2-2,3.18-3.18,2,2a3.31,3.31,0,0,0,4.57,0,3.23,3.23,0,0,0,0-4.59l3.18-3.18a3.3,3.3,0,0,0,4.58,0,3.19,3.19,0,0,0,.95-2.28,3.28,3.28,0,0,0-1-2.31l3.21-3.16a3.16,3.16,0,0,0,2.27.94h0a3.24,3.24,0,0,0,2.29-5.51l3.18-3.18a3.32,3.32,0,0,0,4.56,0,3.21,3.21,0,0,0,.95-2.29,3.14,3.14,0,0,0-.93-2.27L315.12,428a14.75,14.75,0,0,1-18.62-1l-7.4,7.4a7.71,7.71,0,0,1-5.47,2.27h0a7.74,7.74,0,0,1-5.48-13.2l30.18-30.18,3.18,3.18-30.16,30.17a3.27,3.27,0,0,0-.95,2.3,3.18,3.18,0,0,0,.94,2.27,3.23,3.23,0,0,0,2.29,1h0a3.23,3.23,0,0,0,2.29-1l10.57-10.57,2.67,2.68a10.25,10.25,0,0,0,14.49,0l1.59-1.59,16.91,16.92a7.59,7.59,0,0,1,2.26,5.46,7.72,7.72,0,0,1-7.73,7.73h0v0a7.72,7.72,0,0,1-7.73,7.73h0v0a7.66,7.66,0,0,1-2.27,5.46,7.58,7.58,0,0,1-5.49,2.27v0A7.75,7.75,0,0,1,303.42,475.12Z" transform="translate(-225.58 -366.26)"/><rect class="cls-1" x="345.04" y="417.29" width="4.5" height="4.5" transform="translate(-420.52 2.19) rotate(-45)"/><rect class="cls-1" x="245.58" y="417.29" width="4.5" height="4.5" transform="translate(-449.65 -68.13) rotate(-45)"/></svg>