<?xml version="1.0" encoding="UTF-8" standalone="no"?>
<svg width="64px" height="89px" viewBox="0 0 64 89" version="1.1" xmlns="http://www.w3.org/2000/svg" xmlns:xlink="http://www.w3.org/1999/xlink">
    <!-- Generator: Sketch 3.8.3 (29802) - http://www.bohemiancoding.com/sketch -->
    <title>Fill 1</title>
    <desc>Created with Sketch.</desc>
    <defs></defs>
    <g id="Page-1" stroke="none" stroke-width="1" fill="none" fill-rule="evenodd">
        <g id="Desktop-HD" transform="translate(-1206.000000, -230.000000)" fill="#463D6B">
            <path d="M1257.736,318.909 C1253.994,318.877 1250.353,318.02 1246.808,316.437 L1246.177,316.155 L1246.177,315.47 L1246.177,253.842 L1246.177,253.316 L1246.605,252.996 L1252.207,248.793 L1252.66,248.454 L1253.191,248.639 L1265.236,252.842 L1265.951,253.092 L1265.951,253.842 L1265.951,287.457 L1269.73,294.072 L1269.873,294.32 L1269.873,294.599 L1269.873,315.47 L1269.873,316.163 L1269.232,316.441 C1265.304,318.15 1261.476,318.941 1257.736,318.909 L1257.736,318.909 Z M1260.886,241.018 L1250.127,244.527 L1250.127,248.933 L1248.002,248.933 L1248.002,236.187 L1248.002,235.435 L1248.715,235.187 L1261.601,230.705 L1263.013,230.215 L1263.013,231.705 L1263.013,249.562 L1260.886,249.562 L1260.886,241.018 Z M1250.127,242.295 L1260.886,238.787 L1260.886,233.197 L1250.127,236.939 L1250.127,242.295 Z M1251.943,287.094 L1260.041,287.094 L1260.041,280.676 L1251.943,280.676 L1251.943,287.094 Z M1254.183,278.55 L1257.521,278.55 L1257.521,261.488 L1254.183,261.488 L1254.183,278.55 Z M1259.646,289.221 L1259.646,299.502 L1259.646,300.564 L1258.584,300.564 L1253.121,300.564 L1252.058,300.564 L1252.058,299.502 L1252.058,289.221 L1250.881,289.221 L1249.816,289.221 L1249.816,288.157 L1249.816,279.613 L1249.816,278.551 L1250.881,278.551 L1252.058,278.551 L1252.058,260.425 L1252.058,259.361 L1253.121,259.361 L1258.584,259.361 L1259.646,259.361 L1259.646,260.425 L1259.646,278.551 L1261.105,278.551 L1262.168,278.551 L1262.168,279.613 L1262.168,288.157 L1262.168,289.221 L1261.105,289.221 L1259.646,289.221 Z M1254.183,298.439 L1257.521,298.439 L1257.521,289.22 L1254.183,289.22 L1254.183,298.439 Z M1267.746,304.767 L1248.302,304.767 L1248.302,314.775 C1251.386,316.066 1254.533,316.763 1257.752,316.791 C1260.994,316.819 1264.322,316.169 1267.746,314.767 L1267.746,304.767 Z M1248.302,302.64 L1267.746,302.64 L1267.746,294.881 L1263.965,288.263 L1263.824,288.017 L1263.824,287.736 L1263.824,254.594 L1253.025,250.826 L1248.302,254.369 L1248.302,302.64 Z M1220.338,236.515 L1219.058,232.959 L1215.017,234.98 L1214.496,236.515 L1220.338,236.515 Z M1225.242,257.827 L1225.242,303.045 L1227.078,303.045 L1227.078,255.65 L1224.679,254.08 L1219.22,256.074 L1218.797,256.229 L1218.386,256.024 L1213.121,253.392 L1208.127,255.749 L1208.127,303.045 L1210.972,303.045 L1210.972,257.827 L1213.099,257.827 L1213.099,303.045 L1217.16,303.045 L1217.16,257.827 L1219.285,257.827 L1219.285,303.045 L1223.117,303.045 L1223.117,257.827 L1225.242,257.827 Z M1208.127,305.17 L1208.127,314.115 C1211.295,315.698 1214.453,316.465 1217.597,316.451 C1220.748,316.437 1223.908,315.644 1227.078,314.108 L1227.078,305.17 L1208.127,305.17 Z M1229.205,305.17 L1229.205,314.761 L1229.205,315.405 L1228.623,315.703 C1224.963,317.582 1221.289,318.553 1217.607,318.568 C1213.916,318.585 1210.236,317.644 1206.57,315.699 L1206,315.398 L1206,314.761 L1206,305.17 L1206,304.107 L1206,303.045 L1206,255.078 L1206,254.406 L1206.203,254.31 L1213.146,233.888 L1213.287,233.478 L1213.679,233.282 L1219.177,230.533 L1220.244,230 L1220.648,231.123 L1229.015,254.381 L1229.205,254.504 L1229.205,255.078 L1229.205,303.045 L1229.205,304.107 L1229.205,305.17 Z M1208.873,253.051 L1212.679,251.254 L1213.142,251.036 L1213.605,251.267 L1218.923,253.926 L1224.455,251.904 L1224.955,251.722 L1225.398,252.013 L1226.072,252.453 L1221.101,238.64 L1213.773,238.64 L1208.873,253.051 Z" id="Fill-1"></path>
        </g>
    </g>
</svg>