<?xml version="1.0" encoding="UTF-8" standalone="no"?>
<svg width="83px" height="71px" viewBox="0 0 83 71" version="1.1" xmlns="http://www.w3.org/2000/svg" xmlns:xlink="http://www.w3.org/1999/xlink">
    <!-- Generator: Sketch 3.8.3 (29802) - http://www.bohemiancoding.com/sketch -->
    <title>Fill 1</title>
    <desc>Created with Sketch.</desc>
    <defs></defs>
    <g id="Page-1" stroke="none" stroke-width="1" fill="none" fill-rule="evenodd">
        <g id="Desktop-HD" transform="translate(-1060.000000, -237.000000)" fill="#463D6B">
            <path d="M1139.55609,295.041073 L1136.31872,305.459341 L1136.01068,306.446051 L1135.01857,306.165985 L1083.21765,291.575626 L1083.21765,302.374625 C1083.21765,305.112497 1081.72448,306.827779 1079.79726,307.579273 C1079.06318,307.86532 1078.26409,308.004855 1077.46099,307.999871 C1076.6639,307.995884 1075.86481,307.848376 1075.12673,307.563326 C1073.1265,306.788908 1071.55032,305.035753 1071.55032,302.374625 L1071.55032,288.288585 L1068.89202,287.54008 L1068.89202,295.379944 C1068.89202,297.370308 1067.73488,298.636088 1066.25371,299.189244 C1065.70765,299.393563 1065.11558,299.495224 1064.52752,299.493231 C1063.93845,299.492234 1063.34438,299.38858 1062.79832,299.185257 C1061.29915,298.627118 1060.12301,297.351371 1060.12301,295.379944 C1060.12301,289.115827 1060.12101,282.959352 1060,276.707195 L1060.8951,275.596897 L1122.93919,245.848074 C1122.34912,244.846413 1121.71005,243.881629 1121.02097,242.9607 L1121.00097,242.283956 C1122.24911,240.49791 1123.71828,239.046748 1125.52948,238.114855 C1127.35969,237.172995 1129.50394,236.77831 1132.07523,237.123161 L1132.6903,237.428144 C1136.09069,240.861697 1138.29194,244.737775 1139.36406,249.030464 C1140.40218,253.183618 1140.37118,257.714513 1139.33906,262.596238 C1142.2904,268.185604 1143.23451,273.771981 1142.95247,279.356363 C1142.68644,284.607856 1141.33529,289.831441 1139.55609,295.041073 L1139.55609,295.041073 Z M1115.47133,251.77033 C1116.78548,252.790927 1117.89961,254.052721 1118.74471,255.487936 C1119.87784,257.413517 1120.52691,259.645077 1120.52691,262.022152 C1120.52691,265.623147 1119.04174,268.888262 1116.64147,271.251384 C1114.2462,273.609522 1110.93982,275.068658 1107.2884,275.068658 C1103.63898,275.068658 1100.33061,273.609522 1097.93633,271.251384 C1095.53906,268.892249 1094.05689,265.635107 1094.05089,262.042086 L1064.64153,276.142079 L1064.69754,276.578624 L1122.45613,292.193566 L1122.00708,294.262668 L1062.14524,278.077626 C1062.25626,283.863338 1062.25026,289.586259 1062.25026,295.379944 C1062.25026,296.32579 1062.81732,296.938747 1063.5374,297.20785 C1063.85044,297.323464 1064.18948,297.383265 1064.52752,297.383265 C1064.86756,297.384262 1065.20559,297.326454 1065.51463,297.211836 C1066.21771,296.948714 1066.76477,296.341737 1066.76477,295.379944 L1066.76477,286.140745 L1066.76477,284.743404 L1068.11393,285.123138 L1072.90047,286.470646 L1073.67756,286.689915 L1073.67756,287.48925 L1073.67756,302.374625 C1073.67756,304.027116 1074.65267,305.11449 1075.89081,305.593892 C1076.39087,305.786251 1076.93293,305.886915 1077.471,305.889905 C1078.00406,305.893892 1078.53512,305.800204 1079.02417,305.609839 C1080.18931,305.155354 1081.09041,304.0919 1081.09041,302.374625 L1081.09041,290.176292 L1081.09041,288.77895 L1082.44056,289.158684 L1134.60952,303.907514 L1137.0558,295.762668 C1136.86078,294.71815 1136.48573,293.866988 1135.98368,293.195227 C1135.3306,292.323134 1134.4515,291.737088 1133.47339,291.407188 C1132.46528,291.066324 1131.35015,290.99556 1130.26002,291.162005 C1129.2049,291.323467 1128.18579,291.705195 1127.32169,292.279281 C1126.94965,293.466323 1126.5506,294.634429 1126.12455,295.780608 L1124.13232,295.053033 C1127.4587,286.071975 1129.1599,275.730451 1128.56483,266.006868 C1128.15978,259.401888 1126.69362,253.089931 1123.9543,247.70289 L1115.47133,251.77033 Z M1105.67822,269.878959 C1102.84289,269.507198 1100.51263,268.045073 1100.15159,265.440755 L1100.00457,264.387267 L1101.06569,264.248729 L1101.37372,264.207865 C1105.25717,263.700557 1106.98837,263.472318 1108.33252,262.942085 C1109.38764,262.524478 1110.33975,261.85471 1112.05694,260.647734 C1112.74602,260.164346 1113.55512,259.595243 1114.57823,258.897569 L1115.68236,258.146074 L1116.16441,259.394911 C1117.56357,263.016836 1116.48545,265.757699 1114.33821,267.566668 C1113.19407,268.531451 1111.74291,269.209192 1110.21874,269.593909 C1108.72056,269.97165 1107.13038,270.067331 1105.67822,269.878959 L1105.67822,269.878959 Z M1086.99108,269.540089 C1087.34712,272.180287 1088.54226,274.167661 1090.26546,275.517162 C1092.17867,277.017162 1094.76397,277.756696 1097.60229,277.756696 L1097.60229,279.876629 C1094.30092,279.876629 1091.25557,278.985599 1088.95231,277.180617 C1086.81006,275.501216 1085.32489,273.05238 1084.88984,269.821152 L1086.99108,269.540089 Z M1126.40458,277.060019 C1123.97531,275.942744 1121.65204,275.881946 1119.5848,276.608524 C1117.28754,277.413839 1115.27531,279.192908 1113.75414,281.577957 L1111.95893,280.444735 C1113.73114,277.666995 1116.11741,275.582943 1118.87972,274.613176 C1121.45202,273.710187 1124.32235,273.773974 1127.29268,275.139422 L1126.40458,277.060019 Z M1114.48122,263.68162 L1112.516,264.30255 L1112.15296,263.165341 C1111.34586,263.721487 1110.69779,264.142085 1110.04472,264.478962 L1109.8727,264.565673 C1109.62567,264.688264 1109.37464,264.799892 1109.11361,264.903546 C1108.55455,265.123812 1107.97048,265.296237 1107.2714,265.450722 L1107.63644,266.599891 L1105.61821,267.237764 L1105.16716,265.823479 C1104.44808,265.93112 1103.62198,266.041752 1102.65387,266.170323 C1103.27494,267.059359 1104.51308,267.596568 1105.95225,267.783944 C1107.13738,267.940422 1108.45053,267.856701 1109.70368,267.540754 C1110.93082,267.231784 1112.08195,266.699559 1112.96805,265.952051 C1113.68213,265.351054 1114.22219,264.59358 1114.48122,263.68162 L1114.48122,263.68162 Z M1114.02117,262.057036 L1114.50822,263.583946 C1114.67224,262.953049 1114.70125,262.251388 1114.56523,261.47697 C1114.18419,261.742086 1113.83015,261.990259 1113.50211,262.220491 L1114.02117,262.057036 Z M1112.39198,253.246409 L1113.89916,254.87199 L1115.61635,256.725809 L1113.08406,256.644082 C1113.07606,256.644082 1110.31675,256.508534 1106.87035,258.0185 C1103.38996,259.546406 1100.82166,262.10388 1100.81466,262.111853 L1099.62553,263.296902 L1099.06146,261.714179 L1098.43039,259.94109 L1096.22314,260.999561 C1096.21514,261.078299 1096.20914,261.15604 1096.20313,261.235774 C1096.18613,261.480956 1096.17613,261.744079 1096.17613,262.022152 C1096.17613,265.039094 1097.41727,267.770987 1099.4225,269.744408 C1101.43473,271.723809 1104.21405,272.949722 1107.2884,272.949722 C1110.36175,272.949722 1113.14407,271.723809 1115.1553,269.744408 C1117.15853,267.770987 1118.40167,265.039094 1118.40167,262.022152 C1118.40167,260.025808 1117.86061,258.158034 1116.9165,256.556374 C1116.0284,255.044415 1114.78026,253.760694 1113.28509,252.818834 L1112.39198,253.246409 Z M1108.06249,255.322488 C1109.10761,255.002554 1110.05672,254.810196 1110.84581,254.695578 L1110.39275,254.206209 L1108.06249,255.322488 Z M1100.35461,259.018167 L1100.53363,259.526472 C1101.1237,259.040094 1101.90579,258.440094 1102.82489,257.834114 L1100.35461,259.018167 Z M1080.68036,271.8165 C1081.60047,271.8165 1082.34755,272.560021 1082.34755,273.477961 C1082.34755,274.3959 1081.60047,275.139422 1080.68036,275.139422 C1079.75926,275.139422 1079.01317,274.3959 1079.01317,273.477961 C1079.01317,272.560021 1079.75926,271.8165 1080.68036,271.8165 L1080.68036,271.8165 Z M1092.3977,269.221152 C1093.31881,269.221152 1094.06489,269.964673 1094.06489,270.881616 C1094.06489,271.799556 1093.31881,272.544074 1092.3977,272.544074 C1091.47659,272.544074 1090.73051,271.799556 1090.73051,270.881616 C1090.73051,269.964673 1091.47659,269.221152 1092.3977,269.221152 L1092.3977,269.221152 Z M1107.57943,280.130781 C1108.49954,280.130781 1109.24562,280.874303 1109.24562,281.792242 C1109.24562,282.710182 1108.49954,283.453703 1107.57943,283.453703 C1106.65833,283.453703 1105.91324,282.710182 1105.91324,281.792242 C1105.91324,280.874303 1106.65833,280.130781 1107.57943,280.130781 L1107.57943,280.130781 Z M1123.56826,266.389592 C1124.49036,266.389592 1125.23645,267.133113 1125.23645,268.051053 C1125.23645,268.967996 1124.49036,269.712514 1123.56826,269.712514 C1122.64815,269.712514 1121.90207,268.967996 1121.90207,268.051053 C1121.90207,267.133113 1122.64815,266.389592 1123.56826,266.389592 L1123.56826,266.389592 Z M1123.27523,253.964017 C1124.19633,253.964017 1124.94142,254.707538 1124.94142,255.625478 C1124.94142,256.542421 1124.19633,257.286939 1123.27523,257.286939 C1122.35512,257.286939 1121.60804,256.542421 1121.60804,255.625478 C1121.60804,254.707538 1122.35512,253.964017 1123.27523,253.964017 L1123.27523,253.964017 Z M1137.70087,291.956357 L1138.15793,292.51649 C1139.57609,288.082273 1140.61121,283.657026 1140.83323,279.256696 C1141.35329,268.98494 1137.99691,264.32946 1132.75031,256.401889 L1134.52051,255.24375 L1137.65987,259.987934 C1138.21593,256.252388 1138.11092,252.762024 1137.30383,249.534783 C1136.35272,245.725482 1134.4155,242.264022 1131.43616,239.173326 C1129.49094,238.971 1127.87275,239.287944 1126.50159,239.993591 C1125.32046,240.601564 1124.29934,241.508541 1123.39224,242.629803 C1127.86975,249.076311 1130.15401,257.254048 1130.68207,265.882283 C1131.16213,273.7062 1130.20002,281.910847 1128.12578,289.530445 C1128.71485,289.318152 1129.32592,289.162671 1129.94599,289.068983 C1131.35415,288.852704 1132.81532,288.951375 1134.15347,289.403867 C1135.52062,289.865328 1136.75877,290.69556 1137.68687,291.938417 L1137.70087,291.956357 Z M1109.8727,264.565673 L1110.20673,265.609194 L1109.8727,264.565673 Z" id="Fill-1"></path>
        </g>
    </g>
</svg>