<svg id="_ÎÓÈ_1" data-name="—ÎÓÈ_1" xmlns="http://www.w3.org/2000/svg" viewBox="0 0 37.36 37.36"><defs><style>.cls-1{fill:#1d1d1b;}</style></defs><title>icon_tech_infrastructure</title><path class="cls-1" d="M148.36,61.86h-7.27V54.59h7.27v7.27Zm-5.27-2h3.27V56.59h-3.27v3.27Z" transform="translate(-131.06 -44.59)"/><path class="cls-1" d="M158.39,51.86h-7.27V44.59h7.27v7.27Zm-5.27-2h3.27V46.59h-3.27v3.27Z" transform="translate(-131.06 -44.59)"/><path class="cls-1" d="M138.32,61.89h-7.27V54.63h7.27v7.27Zm-5.27-2h3.27V56.63h-3.27v3.27Z" transform="translate(-131.06 -44.59)"/><path class="cls-1" d="M138.32,71.93h-7.27V64.66h7.27v7.27Zm-5.27-2h3.27V66.66h-3.27v3.27Z" transform="translate(-131.06 -44.59)"/><path class="cls-1" d="M148.36,71.93h-7.27V64.66h7.27v7.27Zm-5.27-2h3.27V66.66h-3.27v3.27Z" transform="translate(-131.06 -44.59)"/><path class="cls-1" d="M148.36,82h-7.27V74.69h7.27V82Zm-5.27-2h3.27V76.69h-3.27V80Z" transform="translate(-131.06 -44.59)"/><path class="cls-1" d="M158.39,61.89h-7.27V54.63h7.27v7.27Zm-5.27-2h3.27V56.63h-3.27v3.27Z" transform="translate(-131.06 -44.59)"/><path class="cls-1" d="M158.39,71.93h-7.27V64.66h7.27v7.27Zm-5.27-2h3.27V66.66h-3.27v3.27Z" transform="translate(-131.06 -44.59)"/><path class="cls-1" d="M158.39,82h-7.27V74.69h7.27V82Zm-5.27-2h3.27V76.69h-3.27V80Z" transform="translate(-131.06 -44.59)"/><path class="cls-1" d="M168.42,71.93h-7.27V64.66h7.27v7.27Zm-5.27-2h3.27V66.66h-3.27v3.27Z" transform="translate(-131.06 -44.59)"/></svg>