<?xml version="1.0" encoding="UTF-8" standalone="no"?>
<svg width="100px" height="93px" viewBox="0 0 100 93" version="1.1" xmlns="http://www.w3.org/2000/svg" xmlns:xlink="http://www.w3.org/1999/xlink">
    <!-- Generator: Sketch 3.8.3 (29802) - http://www.bohemiancoding.com/sketch -->
    <title>Page 1</title>
    <desc>Created with Sketch.</desc>
    <defs></defs>
    <g id="Page-1" stroke="none" stroke-width="1" fill="none" fill-rule="evenodd">
        <g id="Desktop-HD" transform="translate(-747.000000, -730.000000)" stroke="#323232" stroke-width="4.5">
            <g id="Page-1" transform="translate(750.000000, 733.000000)">
                <path d="M80.1782407,50.051137 C79.6342778,39.1711741 73.8005741,29.6929889 65.2041296,24.1133222" id="Stroke-1"></path>
                <path d="M32.3470074,81.0169148 C36.8387481,83.3180259 41.9251185,84.6233963 47.3211185,84.6233963 C52.7157111,84.6233963 57.8027852,83.3180259 62.2959333,81.0155074" id="Stroke-3"></path>
                <path d="M29.4387407,24.1131111 C20.8401852,29.6934815 15.0085926,39.170963 14.4646296,50.0523333" id="Stroke-5"></path>
                <path d="M37.8708,34.8968074 C38.0671333,33.5949556 38.6659852,32.3360296 39.6652444,31.3367704 C40.903763,30.0989556 42.5293185,29.4789926 44.147837,29.4789926 L50.4882074,29.4789926 C52.1130593,29.4789926 53.7393185,30.0989556 54.977837,31.3367704 C55.9763926,32.3360296 56.5752444,33.5949556 56.7715778,34.8968074" id="Stroke-7"></path>
                <path d="M52.6472407,18.8242852 C52.6472407,15.8813963 50.2637963,13.4972481 47.3216111,13.4972481 C44.3787222,13.4972481 41.9938704,15.8813963 41.9938704,18.8242852 C41.9938704,21.7671741 44.3787222,24.1499148 47.3216111,24.1499148 C50.2637963,24.1499148 52.6472407,21.7671741 52.6472407,18.8242852 L52.6472407,18.8242852 Z" id="Stroke-9"></path>
                <path d="M66.3708,84.2550074 C66.5671333,82.9531556 67.1659852,81.6928222 68.1652444,80.693563 C69.403763,79.4557481 71.0215778,78.8371926 72.647837,78.8371926 L78.9882074,78.8371926 C80.6130593,78.8371926 82.2322815,79.4557481 83.4708,80.693563 C84.4763926,81.7012667 85.0752444,82.9601926 85.2652444,84.2620444" id="Stroke-11"></path>
                <path d="M81.1444963,68.1825556 C81.1444963,65.2396667 78.7610519,62.8555185 75.8188667,62.8555185 C72.8759778,62.8555185 70.4911259,65.2396667 70.4911259,68.1825556 C70.4911259,71.1254444 72.8759778,73.5081852 75.8188667,73.5081852 C78.7610519,73.5081852 81.1444963,71.1254444 81.1444963,68.1825556 L81.1444963,68.1825556 Z" id="Stroke-13"></path>
                <path d="M9.3776963,84.2619037 C9.5676963,82.9600519 10.1658444,81.7011259 11.1721407,80.6941259 C12.4106593,79.4556074 14.0291778,78.8370519 15.6547333,78.8370519 L21.9951037,78.8370519 C23.6206593,78.8370519 25.2391778,79.4556074 26.4776963,80.6941259 C27.4769556,81.6933852 28.0751037,82.9537185 28.2721407,84.2548667" id="Stroke-15"></path>
                <path d="M24.1513222,68.1825556 C24.1513222,65.2396667 21.7664704,62.8555185 18.8242852,62.8555185 C15.8813963,62.8555185 13.4979519,65.2396667 13.4979519,68.1825556 C13.4979519,71.1254444 15.8813963,73.5081852 18.8242852,73.5081852 C21.7664704,73.5081852 24.1513222,71.1254444 24.1513222,68.1825556 L24.1513222,68.1825556 Z" id="Stroke-17"></path>
                <path d="M47.3213296,51.7238407 L47.3213296,41.9747296" id="Stroke-19"></path>
                <path d="M47.3213296,51.7238407 L38.8768852,56.6005074" id="Stroke-21"></path>
                <path d="M47.3213296,51.7238407 L55.7657741,56.6005074" id="Stroke-23"></path>
                <path d="M65.9694778,18.8242852 C65.9694778,8.52417407 57.6214407,0.176137037 47.3213296,0.176137037 C37.0212185,0.176137037 28.6731815,8.52417407 28.6731815,18.8242852 C28.6731815,29.1229889 37.0212185,37.4724333 47.3213296,37.4724333 C57.6214407,37.4724333 65.9694778,29.1229889 65.9694778,18.8242852 L65.9694778,18.8242852 Z" id="Stroke-25"></path>
                <path d="M94.4667333,68.1825556 C94.4667333,57.881037 86.1186963,49.5344074 75.8185852,49.5344074 C65.5184741,49.5344074 57.170437,57.881037 57.170437,68.1825556 C57.170437,78.4812593 65.5184741,86.8307037 75.8185852,86.8307037 C86.1186963,86.8307037 94.4667333,78.4812593 94.4667333,68.1825556 L94.4667333,68.1825556 Z" id="Stroke-27"></path>
                <path d="M37.4722222,68.1825556 C37.4722222,57.8824444 29.1241852,49.5344074 18.8240741,49.5344074 C8.52396296,49.5344074 0.175925926,57.8824444 0.175925926,68.1825556 C0.175925926,78.4812593 8.52396296,86.8292963 18.8240741,86.8292963 C29.1241852,86.8292963 37.4722222,78.4812593 37.4722222,68.1825556 L37.4722222,68.1825556 Z" id="Stroke-29"></path>
            </g>
        </g>
    </g>
</svg>