<svg id="_ÎÓÈ_1" data-name="—ÎÓÈ_1" xmlns="http://www.w3.org/2000/svg" viewBox="0 0 56.49 37.81"><defs><style>.cls-1{fill:#1d1d1b;}</style></defs><title>icon_tech_cd</title><path class="cls-1" d="M248,379.38H203.83v-25a4.21,4.21,0,0,1,4.21-4.21h35.72a4.21,4.21,0,0,1,4.21,4.21v25Zm-42.13-2H246v-23a2.21,2.21,0,0,0-2.21-2.21H208a2.21,2.21,0,0,0-2.21,2.21v23Z" transform="translate(-197.66 -350.14)"/><rect class="cls-1" x="7.18" y="4.28" width="42.13" height="2"/><rect class="cls-1" x="23.72" y="32.41" width="9.04" height="2"/><path class="cls-1" d="M250.41,387.95h-49a3.74,3.74,0,0,1-3.74-3.74v-2.92h22.07v2H199.66v0.92a1.74,1.74,0,0,0,1.74,1.74h49a1.74,1.74,0,0,0,1.74-1.74v-0.92H232.07v-2h22.07v2.92A3.74,3.74,0,0,1,250.41,387.95Z" transform="translate(-197.66 -350.14)"/><path class="cls-1" d="M221.81,370.31a5.08,5.08,0,1,1,5.08-5.08A5.08,5.08,0,0,1,221.81,370.31Zm0-8.15a3.08,3.08,0,1,0,3.08,3.08A3.08,3.08,0,0,0,221.81,362.16Z" transform="translate(-197.66 -350.14)"/><rect class="cls-1" x="23.15" y="8.35" width="2" height="2.67"/><rect class="cls-1" x="216.98" y="360.07" width="2" height="2.67" transform="translate(-389.38 -90.09) rotate(-45.01)"/><rect class="cls-1" x="17.41" y="14.1" width="2.67" height="2"/><rect class="cls-1" x="216.65" y="368.06" width="2.67" height="2" transform="translate(-394.78 -87.9) rotate(-45)"/><rect class="cls-1" x="23.15" y="19.17" width="2" height="2.67"/><rect class="cls-1" x="224.64" y="367.73" width="2" height="2.67" transform="translate(-392.53 -82.49) rotate(-45)"/><rect class="cls-1" x="28.23" y="14.1" width="2.67" height="2"/><rect class="cls-1" x="224.3" y="360.41" width="2.67" height="2" transform="translate(-387.12 -84.73) rotate(-45)"/><path class="cls-1" d="M232.54,373.68a3.31,3.31,0,1,1,3.3-3.31A3.31,3.31,0,0,1,232.54,373.68Zm0-4.61a1.31,1.31,0,1,0,1.3,1.3A1.31,1.31,0,0,0,232.54,369.07Z" transform="translate(-197.66 -350.14)"/><rect class="cls-1" x="33.88" y="15.38" width="2" height="2.55"/><rect class="cls-1" x="228.44" y="367.31" width="2" height="2.55" transform="translate(-402.14 32.88) rotate(-60)"/><rect class="cls-1" x="228.16" y="371.16" width="2.55" height="2" transform="translate(-352.98 -185.59) rotate(-29.99)"/><rect class="cls-1" x="33.88" y="22.54" width="2" height="2.55"/><rect class="cls-1" x="234.63" y="370.89" width="2" height="2.55" transform="translate(-402.14 40.04) rotate(-60)"/><rect class="cls-1" x="234.36" y="367.58" width="2.55" height="2" transform="translate(-350.36 -182.97) rotate(-29.99)"/></svg>