<?xml version="1.0" encoding="UTF-8" standalone="no"?>
<svg width="95px" height="72px" viewBox="0 0 95 72" version="1.1" xmlns="http://www.w3.org/2000/svg" xmlns:xlink="http://www.w3.org/1999/xlink">
    <!-- Generator: Sketch 3.8.3 (29802) - http://www.bohemiancoding.com/sketch -->
    <title>Page 1</title>
    <desc>Created with Sketch.</desc>
    <defs></defs>
    <g id="Page-1" stroke="none" stroke-width="1" fill="none" fill-rule="evenodd">
        <g id="Desktop-HD" transform="translate(-1194.000000, -390.000000)" fill="#463D6B">
            <g id="Page-1" transform="translate(1194.000000, 390.000000)">
                <path d="M34.3467,36.3638 C36.8747,36.1868 39.2597,35.9078 41.4417,35.5418 C40.3087,33.9538 39.0167,32.3018 37.5857,30.6198 C36.9487,31.8458 36.2697,33.0868 35.5487,34.3348 L35.5487,34.3388 C35.1527,35.0258 34.7517,35.7008 34.3467,36.3638 L34.3467,36.3638 Z M17.5717,35.9788 C19.0047,36.1538 20.5017,36.2928 22.0517,36.3928 L21.8107,36.1518 L21.8067,36.1478 L21.8007,36.1418 C20.7837,35.1258 19.8087,34.1038 18.8767,33.0848 C18.4107,34.0668 17.9767,35.0328 17.5717,35.9788 L17.5717,35.9788 Z M21.6227,23.5748 C19.0947,23.7518 16.7107,24.0308 14.5297,24.3968 C15.6607,25.9848 16.9527,27.6368 18.3827,29.3168 C19.0207,28.0898 19.6987,26.8478 20.4197,25.6008 C20.8177,24.9138 21.2187,24.2378 21.6227,23.5748 L21.6227,23.5748 Z M30.7127,23.3968 C29.8157,23.3708 28.9057,23.3578 27.9847,23.3578 C26.7017,23.3578 25.4417,23.3838 24.2077,23.4328 C23.5487,24.4758 22.8967,25.5528 22.2557,26.6638 C21.4057,28.1348 20.6137,29.5968 19.8847,31.0338 C20.9607,32.2318 22.1027,33.4378 23.3037,34.6388 L23.3097,34.6448 L23.3137,34.6488 C23.9627,35.2978 24.6137,35.9288 25.2617,36.5418 C26.1567,36.5678 27.0657,36.5818 27.9847,36.5818 C29.2677,36.5818 30.5297,36.5558 31.7617,36.5058 C32.4207,35.4638 33.0727,34.3848 33.7147,33.2758 L33.7157,33.2768 C34.5657,31.8048 35.3567,30.3428 36.0867,28.9058 C35.0097,27.7068 33.8657,26.4998 32.6637,25.2968 L32.6597,25.2938 L32.6487,25.2818 L32.6517,25.2808 C32.0057,24.6348 31.3597,24.0068 30.7127,23.3968 L30.7127,23.3968 Z M24.3937,38.6398 C21.7017,38.5388 19.1307,38.3248 16.7417,38.0158 C15.9077,40.1598 15.2537,42.1748 14.7967,43.9988 C13.6837,48.4338 13.6827,51.5738 15.0557,52.3668 L15.0547,52.3688 C16.4297,53.1578 19.1467,51.5878 22.4277,48.4088 C24.2277,46.6658 26.1467,44.4518 28.0757,41.8718 C26.8597,40.8638 25.6277,39.7838 24.3937,38.6398 L24.3937,38.6398 Z M30.3427,38.6778 C29.5667,38.6968 28.7797,38.7078 27.9847,38.7078 L27.6387,38.7068 C28.2027,39.2038 28.7677,39.6858 29.3257,40.1518 C29.6657,39.6708 30.0047,39.1798 30.3427,38.6778 L30.3427,38.6778 Z M27.9847,21.2318 L28.3357,21.2318 C27.7697,20.7348 27.2047,20.2518 26.6447,19.7848 C26.3047,20.2668 25.9657,20.7588 25.6267,21.2598 C26.4047,21.2408 27.1907,21.2318 27.9847,21.2318 L27.9847,21.2318 Z M10.9277,16.3248 C10.5647,15.9618 10.0637,15.7368 9.5087,15.7368 C8.9537,15.7368 8.4517,15.9618 8.0887,16.3248 C7.7267,16.6878 7.5017,17.1898 7.5017,17.7438 C7.5017,18.2978 7.7267,18.8008 8.0887,19.1628 C8.4517,19.5258 8.9537,19.7508 9.5087,19.7508 C10.0637,19.7508 10.5647,19.5258 10.9277,19.1628 L10.9317,19.1628 C11.2927,18.8028 11.5157,18.3018 11.5157,17.7438 C11.5157,17.1898 11.2907,16.6878 10.9277,16.3248 L10.9277,16.3248 Z M9.5087,13.6108 C10.6497,13.6108 11.6837,14.0738 12.4317,14.8218 C13.1787,15.5698 13.6417,16.6028 13.6417,17.7438 C13.6417,18.8818 13.1777,19.9148 12.4287,20.6648 L12.4317,20.6658 C12.3607,20.7368 12.2867,20.8048 12.2117,20.8708 C12.5237,21.3928 12.8577,21.9268 13.2127,22.4718 C16.1487,21.9318 19.4647,21.5478 23.0177,21.3608 C23.6717,20.3538 24.3317,19.3818 24.9937,18.4488 C22.4597,16.4548 20.0317,14.8118 17.8417,13.5938 C13.8517,11.3748 10.8217,10.5628 9.6997,11.6838 L9.6987,11.6848 C9.2917,12.0928 9.1397,12.7538 9.2187,13.6218 C9.3147,13.6148 9.4107,13.6108 9.5087,13.6108 L9.5087,13.6108 Z M10.7017,34.0698 C10.3387,33.7078 9.8367,33.4828 9.2817,33.4828 C8.7287,33.4828 8.2267,33.7078 7.8637,34.0698 C7.4997,34.4328 7.2757,34.9348 7.2757,35.4898 C7.2757,36.0438 7.4997,36.5468 7.8637,36.9088 C8.2267,37.2718 8.7287,37.4968 9.2817,37.4968 C9.8397,37.4968 10.3417,37.2738 10.7017,36.9128 L10.7017,36.9088 C11.0647,36.5468 11.2887,36.0438 11.2887,35.4898 C11.2887,34.9358 11.0647,34.4328 10.7017,34.0698 L10.7017,34.0698 Z M9.2817,31.3568 C10.4237,31.3568 11.4567,31.8198 12.2047,32.5678 C12.9197,33.2828 13.3747,34.2608 13.4117,35.3438 C14.0557,35.4638 14.7167,35.5768 15.3977,35.6808 C15.9807,34.2828 16.6317,32.8408 17.3487,31.3708 C15.4027,29.1288 13.6857,26.9208 12.2417,24.8278 C11.1757,25.0518 10.1717,25.2978 9.2387,25.5638 C4.8437,26.8168 2.1257,28.3848 2.1257,29.9698 C2.1257,31.0908 3.4877,32.2038 5.8397,33.2028 C5.9917,32.9738 6.1657,32.7608 6.3597,32.5678 C7.1077,31.8198 8.1417,31.3568 9.2817,31.3568 L9.2817,31.3568 Z M43.5657,14.9958 C43.2047,14.6348 42.7027,14.4118 42.1467,14.4118 C41.5927,14.4118 41.0907,14.6368 40.7277,14.9998 C40.3647,15.3628 40.1397,15.8648 40.1397,16.4188 C40.1397,16.9758 40.3647,17.4798 40.7277,17.8428 C41.0877,18.2028 41.5897,18.4268 42.1467,18.4268 C42.7007,18.4268 43.2027,18.2018 43.5667,17.8388 L43.5687,17.8408 C43.9297,17.4778 44.1537,16.9748 44.1537,16.4188 C44.1537,15.8648 43.9277,15.3628 43.5657,14.9998 L43.5657,14.9958 Z M39.9657,19.9268 C39.6967,19.7598 39.4477,19.5608 39.2247,19.3378 C38.4767,18.5888 38.0137,17.5568 38.0137,16.4188 C38.0137,15.2788 38.4767,14.2438 39.2247,13.4968 C39.9117,12.8098 40.8397,12.3628 41.8707,12.2958 C42.1607,9.8178 41.8707,8.1248 40.9137,7.5718 L40.9157,7.5698 C39.5397,6.7808 36.8227,8.3518 33.5427,11.5288 C31.7417,13.2728 29.8237,15.4878 27.8927,18.0678 C29.1087,19.0748 30.3397,20.1548 31.5717,21.2988 C34.2657,21.3998 36.8377,21.6138 39.2287,21.9228 C39.4917,21.2438 39.7387,20.5778 39.9657,19.9268 L39.9657,19.9268 Z M43.9307,12.6918 C44.3537,12.8958 44.7377,13.1698 45.0667,13.4988 L45.0687,13.4968 C45.8167,14.2438 46.2797,15.2788 46.2797,16.4188 C46.2797,17.5568 45.8167,18.5888 45.0687,19.3378 L45.0687,19.3408 C44.3217,20.0888 43.2867,20.5518 42.1467,20.5518 C42.0957,20.5518 42.0447,20.5508 41.9937,20.5498 C41.8027,21.1008 41.5977,21.6638 41.3797,22.2348 C43.5577,22.5858 45.5527,23.0188 47.3127,23.5208 L47.3127,25.7348 C47.1217,25.6768 46.9277,25.6198 46.7307,25.5638 C44.9217,25.0478 42.8477,24.6068 40.5717,24.2568 C39.9887,25.6558 39.3357,27.0958 38.6197,28.5658 C40.5677,30.8088 42.2847,33.0168 43.7277,35.1108 C44.0907,35.0348 44.4467,34.9558 44.7947,34.8748 L42.9427,37.7538 L42.7557,37.4668 C39.8217,38.0068 36.5047,38.3908 32.9517,38.5778 C32.2987,39.5838 31.6387,40.5558 30.9777,41.4888 C33.3107,43.3258 35.5547,44.8638 37.6037,46.0468 L36.4547,47.8308 C34.3637,46.6158 32.0857,45.0558 29.7267,43.2038 C27.7417,45.8508 25.7647,48.1288 23.9057,49.9288 C19.9117,53.7978 16.2927,55.5278 13.9967,54.2018 L13.9917,54.2018 C11.6957,52.8758 11.3837,48.8768 12.7367,43.4848 C13.1817,41.7108 13.8047,39.7658 14.5897,37.7038 C14.0277,37.6128 13.4767,37.5178 12.9397,37.4158 C12.7447,37.7848 12.4967,38.1198 12.2047,38.4118 L12.2027,38.4098 C11.4527,39.1598 10.4197,39.6228 9.2817,39.6228 C8.1417,39.6228 7.1077,39.1598 6.3597,38.4118 C5.6127,37.6648 5.1497,36.6308 5.1497,35.4898 C5.1497,35.3888 5.1537,35.2888 5.1597,35.1898 C1.9047,33.7758 -0.0003,31.9828 -0.0003,29.9698 C-0.0003,27.3158 3.3087,25.0458 8.6567,23.5208 C9.3947,23.3108 10.1727,23.1128 10.9887,22.9268 C10.7487,22.5468 10.5197,22.1718 10.3007,21.8008 C10.0437,21.8508 9.7797,21.8768 9.5087,21.8768 C8.3667,21.8768 7.3337,21.4138 6.5857,20.6658 C5.8387,19.9188 5.3747,18.8848 5.3747,17.7438 C5.3747,16.6028 5.8387,15.5698 6.5857,14.8218 C6.7857,14.6218 7.0067,14.4418 7.2437,14.2858 C6.9867,12.5118 7.2797,11.0988 8.1967,10.1818 L8.1967,10.1808 C10.0717,8.3068 14.0137,9.0408 18.8717,11.7418 C21.1357,13.0008 23.6377,14.6908 26.2417,16.7358 C28.2277,14.0888 30.2047,11.8108 32.0647,10.0098 C36.0587,6.1408 39.6767,4.4108 41.9727,5.7368 L41.9777,5.7368 C43.6997,6.7318 44.3067,9.2298 43.9307,12.6918 L43.9307,12.6918 Z M49.6567,-0.0002 L73.7237,-0.0002 L74.7867,-0.0002 L74.7867,1.0628 L74.7867,6.5498 L74.7867,7.6128 L73.7237,7.6128 L71.4627,7.6128 L71.4627,32.4758 L93.9807,65.3138 L94.3387,65.8368 L94.0427,66.4018 L91.4417,71.3678 L91.1417,71.9408 L90.5027,71.9408 L70.3997,71.9408 L61.6497,71.9408 L52.8987,71.9408 L32.7947,71.9408 L32.1557,71.9408 L31.8567,71.3678 L29.2547,66.4018 L28.9587,65.8368 L29.3177,65.3138 L51.8347,32.4758 L51.8347,7.6128 L49.6567,7.6128 L48.5937,7.6128 L48.5937,6.5498 L48.5937,1.0628 L48.5937,-0.0002 L49.6567,-0.0002 Z M50.7197,5.4858 L72.6607,5.4858 L72.6607,2.1258 L50.7197,2.1258 L50.7197,5.4858 Z M74.6627,40.8938 L74.6627,41.0368 L67.8707,41.0368 L75.7367,53.4418 L78.1717,57.2828 L77.2757,57.8518 L76.3777,58.4218 L65.3557,41.0368 L48.5367,41.0368 L31.4277,65.9868 L33.4337,69.8148 L52.8987,69.8148 L61.6497,69.8148 L70.3997,69.8148 L89.8637,69.8148 L91.8687,65.9868 L74.6627,40.8938 Z M49.9947,38.9108 L64.0077,38.9108 L61.9097,35.6018 L61.7437,35.3398 L61.7437,35.0328 L61.7437,17.1968 L62.8067,17.1968 L63.0897,17.1968 L63.8687,17.1968 L63.8687,19.4318 L63.8687,34.7258 L66.5237,38.9108 L73.3027,38.9108 L69.5237,33.3988 L69.3357,33.1268 L69.3357,32.8008 L69.3357,7.6128 L53.9607,7.6128 L53.9607,32.8008 L53.9607,33.1268 L53.7747,33.3988 L49.9947,38.9108 Z M34.1637,23.7908 L34.1657,23.7938 C35.1847,24.8118 36.1617,25.8348 37.0937,26.8548 C37.5597,25.8728 37.9947,24.9058 38.3987,23.9598 C36.9647,23.7858 35.4657,23.6468 33.9137,23.5468 L34.1487,23.7788 L34.1527,23.7788 L34.1637,23.7908 Z" id="Fill-1"></path>
            </g>
        </g>
    </g>
</svg>