<?xml version="1.0" encoding="UTF-8" standalone="no"?>
<svg width="99px" height="75px" viewBox="0 0 99 75" version="1.1" xmlns="http://www.w3.org/2000/svg" xmlns:xlink="http://www.w3.org/1999/xlink">
    <!-- Generator: Sketch 3.8.3 (29802) - http://www.bohemiancoding.com/sketch -->
    <title>Page 1</title>
    <desc>Created with Sketch.</desc>
    <defs></defs>
    <g id="Page-1" stroke="none" stroke-width="1" fill="none" fill-rule="evenodd">
        <g id="Desktop-HD" transform="translate(-60.000000, -970.000000)">
            <g id="Page-1" transform="translate(62.000000, 971.000000)">
                <path d="M68.2500739,48.1680775 L76.5043697,39.9044155" id="Stroke-1" stroke="#323232" stroke-width="4.5"></path>
                <path d="M18.4783697,39.90475 L26.7360106,48.1643979" id="Stroke-2" stroke="#323232" stroke-width="4.5"></path>
                <path d="M47.4916373,27.4087711 L39.2360035,19.1484542" id="Stroke-3" stroke="#323232" stroke-width="4.5"></path>
                <g id="Group-22" transform="translate(0.000000, 0.575352)">
                    <path d="M31.9233451,52.7822007 C32.586338,52.1125176 32.9971127,51.1939613 32.9971127,50.182412 C32.9971127,49.1668486 32.586338,48.2502993 31.9233451,47.5913204 C31.2583451,46.9296655 30.3411268,46.5115317 29.3295775,46.5115317 C28.3173592,46.5122007 27.4001408,46.9296655 26.7324648,47.5913204 L26.7277817,47.5973415 C26.0681338,48.2536444 25.6566901,49.1715317 25.6573592,50.18375 C25.6566901,51.1999824 26.0681338,52.1172007 26.7271127,52.7842077 C27.3967958,53.4492077 28.3133451,53.8552993 29.3242254,53.8552993 C30.3377817,53.8559683 31.253662,53.4498768 31.922007,52.7835387 L31.9233451,52.7822007 L31.9233451,52.7822007 Z" id="Stroke-4" stroke="#202020" stroke-width="4.5"></path>
                    <path d="M37.1104789,57.9637817 C37.7728028,57.3014577 38.1902676,56.3849085 38.1902676,55.3733592 C38.1902676,54.3611408 37.7728028,53.4452606 37.1104789,52.7815986 C36.450831,52.1112465 35.5255845,51.7058239 34.5133662,51.7058239 C33.5024859,51.7058239 32.5866056,52.1125845 31.9236127,52.7822676 L31.9222746,52.7836056 C31.2539296,53.4499437 30.8411479,54.366493 30.8418169,55.3780423 C30.8431549,56.3889225 31.2539296,57.3068099 31.9222746,57.9698028 C32.5812535,58.6388169 33.4984718,59.0442394 34.5106901,59.0442394 C35.5295986,59.0442394 36.4474859,58.6381479 37.1064648,57.9698028 L37.1104789,57.9637817 L37.1104789,57.9637817 Z" id="Stroke-6" stroke="#202020" stroke-width="4.5"></path>
                    <path d="M43.375662,60.5679859 C43.375662,59.5544296 42.9655563,58.6372113 42.3045704,57.9641831 C41.6375634,57.3011901 40.7203451,56.8971056 39.7081268,56.8984437 C38.6939014,56.8977746 37.772669,57.3011901 37.1103451,57.9635141 L37.106331,57.9695352 C36.4473521,58.6378803 36.0365775,59.5564366 36.0365775,60.570662 C36.0365775,61.5835493 36.4473521,62.5007676 37.106331,63.1590775 C37.7746761,63.8214014 38.6918944,64.2381972 39.7034437,64.2381972 C40.714993,64.2381972 41.6322113,63.8214014 42.2998873,63.1597465 L42.3045704,63.1550634 C42.9655563,62.4967535 43.374993,61.5795352 43.375662,60.5679859 L43.375662,60.5679859 Z" id="Stroke-8" stroke="#202020" stroke-width="4.5"></path>
                    <path d="M47.48575,63.1551972 C46.822757,62.4968873 45.9055387,62.0794225 44.8926514,62.0794225 C43.8811021,62.0794225 42.9652218,62.4968873 42.3042359,63.1551972 L42.2995528,63.1598803 C41.6325458,63.8215352 41.2211021,64.7387535 41.2211021,65.7529789 C41.2217711,66.7738944 41.6325458,67.6904437 42.2995528,68.3520986 C42.9598697,69.0130845 43.876419,69.4285423 44.8886373,69.4298803 C45.9021937,69.4298803 46.8147289,69.0090704 47.487757,68.3494225 C48.1601162,67.6857606 48.5615246,66.7692113 48.5608556,65.756993 C48.5608556,64.7347394 48.1607852,63.8175211 47.48575,63.1551972 L47.48575,63.1551972 Z" id="Stroke-10" stroke="#202020" stroke-width="4.5"></path>
                    <polyline id="Stroke-12" stroke="#202020" stroke-width="4.5" points="0.395387324 28.8760528 14.6647887 43.1461232 43.0463732 14.7598556 28.7763028 0.489116197"></polyline>
                    <polyline id="Stroke-14" stroke="#202020" stroke-width="4.5" points="66.2064366 0.489651408 51.9383732 14.7597218 80.3159437 43.1486655 94.5860141 28.8779261"></polyline>
                    <path d="M55.7465352,18.5726338 L35.5663944,38.7561197 C34.9060775,39.4284789 34.4926268,40.3450282 34.4926268,41.3565775 C34.4926268,42.3687958 34.9040704,43.2846761 35.5663944,43.9436549 C36.2327324,44.6086549 37.1499507,45.0241127 38.163507,45.0234437 C39.1750563,45.0241127 40.0922746,44.6086549 40.7599507,43.9429859 L46.7676972,37.9352394 C46.7676972,37.9352394 47.2453732,38.4129155 47.4895634,38.6577746 C50.7556901,41.9259085 56.0509366,41.9239014 59.3157254,38.6577746 L69.5663592,48.9150986 C70.2360423,49.5734085 70.6428028,50.4899577 70.6414648,51.5028451 C70.6428028,52.5190775 70.2360423,53.4342887 69.5670282,54.1033028 C68.9040352,54.7683028 67.9874859,55.1743944 66.9759366,55.1743944 C65.9630493,55.1743944 65.047169,54.7683028 64.383507,54.1039718 C65.047169,54.7683028 65.4525915,55.6855211 65.4525915,56.6970704 C65.4525915,57.7072817 65.047169,58.625169 64.383507,59.287493 C63.714493,59.9578451 62.7959366,60.3625986 61.7857254,60.3625986 C60.770831,60.3632676 59.8536127,59.9578451 59.1926268,59.287493 C59.8536127,59.9578451 60.2690704,60.8737254 60.2690704,61.8892887 C60.2690704,62.901507 59.8536127,63.8187254 59.1932958,64.4777042 C58.5296338,65.1406972 57.6137535,65.5568239 56.6008662,65.5568239 C55.5806197,65.5568239 54.6620634,65.1413662 53.9997394,64.4783732 C54.6620634,65.1413662 55.0788592,66.0585845 55.0775211,67.0728099 C55.0788592,68.0917183 54.6620634,69.0089366 53.9990704,69.6712606 C53.3400915,70.3329155 52.4228732,70.7483732 51.4113239,70.7483732 C50.4004437,70.7483732 49.4805493,70.3309085 48.8101972,69.6712606 L47.4875563,68.3492887" id="Stroke-16" stroke="#202020" stroke-width="4.5"></path>
                    <polygon id="Fill-18" fill="#323232" points="80.7613732 37.2001937 78.6325704 35.0713908 80.7613732 32.942588 82.889507 35.0713908"></polygon>
                    <polygon id="Fill-20" fill="#323232" points="14.2206303 37.2007958 12.0918275 35.071993 14.2206303 32.9431901 16.3494331 35.071993"></polygon>
                </g>
            </g>
        </g>
    </g>
</svg>