<svg id="_ÎÓÈ_1" data-name="—ÎÓÈ_1" xmlns="http://www.w3.org/2000/svg" viewBox="0 0 29.29 42.8"><defs><style>.cls-1{fill:#1d1d1b;}</style></defs><title>icon_tech_data</title><rect class="cls-1" x="27.29" y="8.71" width="2" height="27.29"/><rect class="cls-1" y="8.71" width="2" height="27.29"/><path class="cls-1" d="M298.26,282.13c-8.35,0-14.65-2.92-14.65-6.8,0-2.57,2.81-4.8,7.51-6l0.48,1.94c-3.59.89-6,2.51-6,4,0,2.27,5.19,4.8,12.65,4.8s12.65-2.53,12.65-4.8c0-1.53-2.43-3.16-6-4l0.48-1.94c4.74,1.17,7.57,3.41,7.57,6C312.91,279.21,306.61,282.13,298.26,282.13Z" transform="translate(-283.61 -266.63)"/><path class="cls-1" d="M298.26,309.43c-8.35,0-14.65-2.92-14.65-6.8h2c0,2.27,5.19,4.8,12.65,4.8s12.65-2.53,12.65-4.8h2C312.91,306.51,306.61,309.43,298.26,309.43Z" transform="translate(-283.61 -266.63)"/><path class="cls-1" d="M299.26,274.63h-2v-3h2v3Zm0-5h-2v-3h2v3Z" transform="translate(-283.61 -266.63)"/><path class="cls-1" d="M295,274.63h-2v-3h2v3Zm0-5h-2v-3h2v3Z" transform="translate(-283.61 -266.63)"/><path class="cls-1" d="M303.48,274.63h-2v-3h2v3Zm0-5h-2v-3h2v3Z" transform="translate(-283.61 -266.63)"/></svg>