<?xml version="1.0" encoding="UTF-8" standalone="no"?>
<svg width="558px" height="284px" viewBox="0 0 558 284" version="1.1" xmlns="http://www.w3.org/2000/svg" xmlns:xlink="http://www.w3.org/1999/xlink">
    <!-- Generator: Sketch 3.8.3 (29802) - http://www.bohemiancoding.com/sketch -->
    <title>Envelope</title>
    <desc>Created with Sketch.</desc>
    <defs></defs>
    <g id="Page-1" stroke="none" stroke-width="1" fill="none" fill-rule="evenodd" stroke-linecap="square" stroke-linejoin="bevel">
        <path d="M278.852761,176.355517 L5,65.3723365 C5,65.3723365 75.9273596,195.927894 111.391039,261.205672 C114.723853,267.340361 122.781957,279 122.781957,279 L278.123689,177.654571 L278.128041,178.233216 L123.579455,278.595834 L279.733159,278.595834 L434.12331,278.595834 L379.334528,242.735338 L434.920809,279 C434.920809,279 442.978912,267.340361 446.311726,261.205672 C481.775406,195.927894 553,65.6450697 553,65.6450697 L278.852761,176.355517 Z M278.116513,176.70039 L278.123689,177.654571 L278.851383,177.179821 L278.116513,176.70039 Z M278.116156,176.652984 L278.114892,176.484799 L278.274285,176.589126 L278.116156,176.652984 Z M6.88305216,63.2011315 L211.830072,103.447432 L188.189402,136.868556 L6.88305216,63.2011315 Z M278.071495,3 L370.08525,139.082455 L278.974026,176.275736 L189.267605,139.082455 L278.071495,3 Z M278.852761,176.355517 L279.631271,176.67102 L279.014339,177.073508 L379.334528,242.735338 L278.851383,177.179821 L279.014339,177.073508 L278.274285,176.589126 L278.852761,176.355517 Z M278.116513,176.70039 L278.116156,176.652984 L278.071495,176.67102 L278.116513,176.70039 Z M551.460496,63.7860154 L346.004512,103.360475 L369.207225,136.856739 L551.460496,63.7860154 Z" id="Envelope" stroke="#6C5EA4" stroke-width="9.42399979"></path>
    </g>
</svg>